<svg xmlns="http://www.w3.org/2000/svg" version="1.1" xmlns:xlink="http://www.w3.org/1999/xlink" width="512" height="512" x="0" y="0" viewBox="0 0 550 550" style="enable-background:new 0 0 512 512" xml:space="preserve" class=""><g><path d="M155 303c-74.991 0-136-61.009-136-136S80.009 31 155 31c.242 0 .483.011.724.033l264 24A8 8 0 0 1 427 63v80a8.001 8.001 0 0 1-5.029 7.428L285.633 204.95C268.858 262.889 215.722 303 155 303zm-.357-256C88.636 47.19 35 100.949 35 167c0 66.168 53.832 120 120 120 54.791 0 102.582-37.007 116.219-89.994a8 8 0 0 1 4.777-5.434L411 137.583V70.306z" fill="#B05F34" opacity="1" data-original="#000000" class=""></path><path d="M506.999 183c-.92 0-1.845-.159-2.733-.481l-88-32A8 8 0 0 1 411 143V63a8 8 0 0 1 5.896-7.718l88-24A8 8 0 0 1 515 39v136a8 8 0 0 1-8.001 8zM427 137.396l72 26.182V49.474L427 69.11zM222.738 471.02c-7.284 0-14.566-1.44-21.495-4.32-13.815-5.742-24.564-16.521-30.269-30.349l-59.189-143.388a8 8 0 0 1 4.342-10.447 8.001 8.001 0 0 1 10.447 4.342l59.19 143.39c4.075 9.879 11.752 17.576 21.62 21.678 9.866 4.102 20.738 4.115 30.614.04 20.385-8.42 30.124-31.856 21.707-52.242l-48.86-118.37a8.001 8.001 0 0 1 14.79-6.106l48.86 118.37c11.782 28.539-1.851 61.348-30.391 73.138-6.892 2.842-14.129 4.264-21.366 4.264zM155 247c-44.112 0-80-35.888-80-80s35.888-80 80-80 80 35.888 80 80-35.888 80-80 80zm0-144c-35.29 0-64 28.71-64 64s28.71 64 64 64 64-28.71 64-64-28.71-64-64-64z" fill="#B05F34" opacity="1" data-original="#000000" class=""></path><path d="M308.47 519c-23.646 0-45.585-11.744-58.688-31.415l-15.758-23.638a8 8 0 1 1 13.313-8.875l15.76 23.641C273.227 493.922 290.188 503 308.47 503c14.568 0 28.259-5.673 38.551-15.975C357.327 476.729 363 463.038 363 448.47V343.711c0-12.899 5.3-25.563 14.54-34.742 9.073-9.015 20.95-13.969 33.469-13.969l.31.001c12.694.083 24.634 5.077 33.619 14.062C454.006 318.133 459 330.186 459 343c0 10.647 4.161 20.644 11.716 28.146 7.488 7.437 17.402 11.521 27.944 11.521l.283-.001 24.001-.167h.057a8 8 0 0 1 .055 16l-24.001.167-.397.001c-14.795.001-28.707-5.732-39.216-16.168C448.839 371.971 443 357.942 443 343c0-8.542-3.33-16.576-9.377-22.624-5.99-5.99-13.949-9.32-22.408-9.375l-.203-.001c-8.267 0-16.141 3.305-22.195 9.319-6.238 6.198-9.816 14.724-9.816 23.392V448.47c0 18.845-7.34 36.556-20.666 49.869C345.025 511.66 327.314 519 308.47 519zM475 171a8 8 0 0 1-8-8V48a8 8 0 0 1 16 0v115a8 8 0 0 1-8 8zM331 103h-80a8 8 0 0 1 0-16h80a8 8 0 0 1 0 16zM363 135H251a8 8 0 0 1 0-16h112a8 8 0 0 1 0 16zM363 103c-.521 0-1.05-.05-1.561-.16a7.85 7.85 0 0 1-2.88-1.19c-.439-.29-.85-.62-1.22-.99s-.7-.78-.99-1.22a7.847 7.847 0 0 1-1.189-2.88c-.11-.51-.16-1.04-.16-1.56s.05-1.05.16-1.56c.1-.51.25-1.02.449-1.5.2-.48.45-.95.74-1.38.29-.44.62-.85.99-1.22s.78-.7 1.22-.99a7.85 7.85 0 0 1 2.88-1.19 7.804 7.804 0 0 1 3.12 0 7.828 7.828 0 0 1 2.88 1.19c.44.29.851.62 1.221.99.359.37.699.78.989 1.22a7.779 7.779 0 0 1 1.19 2.88c.11.51.16 1.04.16 1.56s-.05 1.05-.16 1.56a7.85 7.85 0 0 1-1.19 2.88c-.29.44-.63.85-.989 1.22-.37.37-.78.7-1.221.99a7.828 7.828 0 0 1-2.88 1.19c-.509.11-1.039.16-1.559.16z" fill="#B05F34" opacity="1" data-original="#000000" class=""></path></g></svg>
