<svg enable-background="new 0 0 200 200" height="200" viewBox="0 0 200 200" width="200" xmlns="http://www.w3.org/2000/svg"><path d="m100 0c-55.229 0-100 44.771-100 100 0 20.479 6.179 39.502 16.741 55.355l-16.741 44.645 44.644-16.742c15.853 10.562 34.877 16.742 55.356 16.742 55.229 0 100-44.771 100-100s-44.772-100-100-100z" fill="#fff"/><path d="m100.459 11.5c-48.325 0-87.5 39.175-87.5 87.5 0 17.919 5.407 34.564 14.648 48.437l-14.648 39.063 39.063-14.649c13.872 9.242 30.518 14.649 48.437 14.649 48.326 0 87.5-39.175 87.5-87.5s-39.176-87.5-87.5-87.5z" fill="#7b519d"/><g fill="#f1f2f2"><path d="m106.199 64.579c-2.608-.315-6.062-1.542-6.675 2.07-.607 3.612 3.2 3.416 5.666 3.968 16.756 3.751 22.6 9.851 25.343 26.466.394 2.43-.395 6.198 3.729 5.567 3.061-.473 1.955-3.689 2.21-5.587.139-15.965-13.536-30.471-30.273-32.484"/><path d="m100.888 56.08c27.138 4.165 39.651 17.071 43.106 44.408.313 2.528-.611 6.316 2.979 6.395 3.593.078 2.86-3.669 2.881-6.197.318-25.759-22.124-49.6-48.195-50.486-1.976.277-6.04-1.364-6.298 3.059-.18 2.978 3.257 2.486 5.508 2.822h.019z"/><path d="m106.736 77.625c-1.735.041-3.453.236-4.085 2.094-.965 2.782 1.065 3.453 3.116 3.768 6.87 1.105 10.504 5.15 11.171 12.018.18 1.857 1.363 3.375 3.161 3.158 2.484-.294 2.724-2.503 2.644-4.618.12-7.694-8.587-16.597-16.007-16.42"/></g><path d="m138.989 124.619c-9.466 0-18.495-2.062-26.82-6.132-1.306-.625-2.819-.724-4.201-.252-1.382.482-2.513 1.491-3.147 2.798l-3.949 8.172c-11.847-6.802-21.676-16.642-28.487-28.488l8.183-3.949c1.316-.635 2.314-1.766 2.797-3.148.472-1.382.384-2.896-.252-4.201-4.081-8.314-6.143-17.343-6.143-26.82 0-3.027-2.458-5.484-5.484-5.484h-20.25c-3.027 0-5.484 2.457-5.484 5.484 0 51.414 41.826 93.239 93.239 93.239 3.027 0 5.484-2.457 5.484-5.484v-20.249c-.001-3.029-2.458-5.486-5.486-5.486z" fill="#fafafa"/></svg>