<svg xmlns="http://www.w3.org/2000/svg" version="1.1" xmlns:xlink="http://www.w3.org/1999/xlink" xmlns:svgjs="http://svgjs.com/svgjs" width="512" height="512" x="0" y="0" viewBox="0 0 512 512" style="enable-background:new 0 0 512 512" xml:space="preserve" class=""><g><path d="M262.678 411.565v64.65M349.668 411.565v64.65M319.186 411.565h-26.203v64.65M292.983 443.278h24.121M162.332 411.684l12.646 63.542c.445 1.31 2.293 1.322 2.757.019l19.618-63.68 19.618 63.68c.463 1.304 2.311 1.291 2.757-.019l12.646-63.542" style="stroke-width:15;stroke-linecap:round;stroke-linejoin:round;stroke-miterlimit:10;" fill="none" stroke="#B05F34" stroke-width="15" stroke-linecap="round" stroke-linejoin="round" stroke-miterlimit="10" data-original="#000000" class=""></path><path d="M346.91 383.28h30.31c11.16 0 20.2 9.05 20.2 20.2v80.82c0 11.15-9.04 20.2-20.2 20.2H134.78c-11.16 0-20.2-9.05-20.2-20.2v-80.82c0-11.15 9.04-20.2 20.2-20.2h177.13M413.23 43c13.83 6.6 27.18 14.05 39.98 22.28 11.78 7.57 13.69 24.02 4 34.13l-.01.01c-7.39 7.71-19.19 9.05-28.17 3.28C379.11 70.64 319.72 52.04 256 52.04S132.89 70.64 82.97 102.7c-8.98 5.77-20.78 4.43-28.17-3.28l-.01-.01c-9.69-10.11-7.78-26.56 4-34.13C115.67 28.71 183.36 7.5 256 7.5c43.89 0 85.98 7.74 124.97 21.95" style="stroke-width:15;stroke-linecap:round;stroke-linejoin:round;stroke-miterlimit:10;" fill="none" stroke="#B05F34" stroke-width="15" stroke-linecap="round" stroke-linejoin="round" stroke-miterlimit="10" data-original="#000000" class=""></path><path d="M256 96.566c-48.042 0-93.212 12.267-132.559 33.85-12.863 7.056-15.563 24.375-5.411 34.966h0c6.937 7.238 17.884 8.998 26.671 4.171 33.028-18.14 70.958-28.449 111.299-28.449s78.271 10.309 111.299 28.449c8.787 4.826 19.734 3.066 26.671-4.171h0c10.152-10.591 7.452-27.91-5.411-34.966-39.347-21.583-84.517-33.85-132.559-33.85zM241.17 186.22c4.89-.39 9.84-.58 14.83-.58 22.64 0 44.34 4.02 64.43 11.39 9.34 3.43 14.59 12.1 14.59 20.96 0 5.44-1.98 10.95-6.21 15.36-6.13 6.39-15.45 8.53-23.76 5.49-15.29-5.61-31.82-8.67-49.05-8.67s-33.76 3.06-49.05 8.67c-2.51.92-5.1 1.36-7.68 1.36-5.96 0-11.8-2.39-16.08-6.85-11.11-11.59-6.69-30.79 8.38-36.32 4.96-1.82 10.01-3.43 15.15-4.83" style="stroke-width:15;stroke-linecap:round;stroke-linejoin:round;stroke-miterlimit:10;" fill="none" stroke="#B05F34" stroke-width="15" stroke-linecap="round" stroke-linejoin="round" stroke-miterlimit="10" data-original="#000000" class=""></path><circle cx="256" cy="309.292" r="37.376" style="stroke-width:15;stroke-linecap:round;stroke-linejoin:round;stroke-miterlimit:10;" fill="none" stroke="#B05F34" stroke-width="15" stroke-linecap="round" stroke-linejoin="round" stroke-miterlimit="10" data-original="#000000" class=""></circle></g></svg>
