<svg xmlns="http://www.w3.org/2000/svg" version="1.1" xmlns:xlink="http://www.w3.org/1999/xlink" width="512" height="512" x="0" y="0" viewBox="0 0 64 64" style="enable-background:new 0 0 512 512" xml:space="preserve" class=""><g><path d="M57.31 6.929H9.398a4.695 4.695 0 0 0-4.69 4.69v14.52H4.04c-1.124 0-2.039.918-2.039 2.048v26.835c0 1.13.915 2.05 2.04 2.05h11.753a2.05 2.05 0 0 0 2.05-2.05v-7.665h31.43v2.842a1 1 0 0 0 1 1h6.517a1 1 0 0 0 1-1v-2.89c2.358-.244 4.21-2.22 4.21-4.642V11.618a4.695 4.695 0 0 0-4.69-4.69zM4 55.022l.04-26.884h1.668l10.134.049-.049 26.884zm51.786-38.36L39.245 33.205a1 1 0 1 0 1.414 1.414l15.127-15.127v21.653H22.732l19.971-19.971a1 1 0 1 0-1.414-1.414L19.904 41.144h-2.062V28.187a2.05 2.05 0 0 0-2.049-2.049h-4.872V13.143h44.865v3.52zM51.272 49.2v-1.842h4.518v1.842zM60 42.667a2.693 2.693 0 0 1-2.69 2.69h-.516l-.004-.001H17.842v-2.212h2.461l.013.002.012-.002h36.458a1 1 0 0 0 1-1V12.143a1 1 0 0 0-1-1H9.921a1 1 0 0 0-1 1v13.995H6.708v-14.52a2.693 2.693 0 0 1 2.689-2.69h47.914A2.693 2.693 0 0 1 60 11.619z" fill="#B05F34" opacity="1" data-original="#000000" class=""></path><path d="M7.325 29.89H5.708a1 1 0 0 0 0 2h1.617a1 1 0 0 0 0-2zM6.517 33.576h-.81a1 1 0 0 0 0 2h.81a1 1 0 0 0 0-2zM10.326 33.576h-.81a1 1 0 0 0 0 2h.81a1 1 0 0 0 0-2zM14.135 33.576h-.81a1 1 0 0 0 0 2h.81a1 1 0 0 0 0-2zM6.517 36.718h-.81a1 1 0 0 0 0 2h.81a1 1 0 0 0 0-2zM10.326 36.718h-.81a1 1 0 0 0 0 2h.81a1 1 0 0 0 0-2zM14.135 36.718h-.81a1 1 0 0 0 0 2h.81a1 1 0 0 0 0-2zM6.517 39.86h-.81a1 1 0 0 0 0 2h.81a1 1 0 0 0 0-2zM10.326 39.86h-.81a1 1 0 0 0 0 2h.81a1 1 0 0 0 0-2zM14.135 39.86h-.81a1 1 0 0 0 0 2h.81a1 1 0 0 0 0-2zM6.517 43.001h-.81a1 1 0 0 0 0 2h.81a1 1 0 0 0 0-2zM10.326 43.001h-.81a1 1 0 0 0 0 2h.81a1 1 0 0 0 0-2zM14.135 43.001h-.81a1 1 0 0 0 0 2h.81a1 1 0 0 0 0-2zM6.517 46.144h-.81a1 1 0 0 0 0 2h.81a1 1 0 0 0 0-2zM10.326 46.144h-.81a1 1 0 0 0 0 2h.81a1 1 0 0 0 0-2zM14.135 46.144h-.81a1 1 0 0 0 0 2h.81a1 1 0 0 0 0-2z" fill="#B05F34" opacity="1" data-original="#000000" class=""></path></g></svg>
