<svg xmlns="http://www.w3.org/2000/svg" version="1.1" xmlns:xlink="http://www.w3.org/1999/xlink" xmlns:svgjs="http://svgjs.com/svgjs" width="512" height="512" x="0" y="0" viewBox="0 0 512 512" style="enable-background:new 0 0 512 512" xml:space="preserve" class=""><g><path d="M460.8 68.267H51.2C22.935 68.295.028 91.201 0 119.467V358.4c.028 28.265 22.935 51.172 51.2 51.2h8.533v8.533c0 14.138 11.462 25.6 25.6 25.6h25.6c14.138 0 25.6-11.462 25.6-25.6V409.6h238.933v8.533c0 14.138 11.462 25.6 25.6 25.6h25.6c14.138 0 25.6-11.462 25.6-25.6V409.6h8.533c28.265-.028 51.172-22.935 51.2-51.2V119.467c-.027-28.266-22.934-51.172-51.199-51.2zM119.467 418.133a8.533 8.533 0 0 1-8.533 8.533h-25.6a8.533 8.533 0 0 1-8.533-8.533V409.6h42.667v8.533zm315.733 0a8.533 8.533 0 0 1-8.533 8.533h-25.6a8.533 8.533 0 0 1-8.533-8.533V409.6H435.2zm59.733-59.733c0 18.851-15.282 34.133-34.133 34.133H51.2c-18.851 0-34.133-15.282-34.133-34.133V119.467c0-18.851 15.282-34.133 34.133-34.133h409.6c18.851 0 34.133 15.282 34.133 34.133z" fill="#B05F34" data-original="#000000" class=""></path><path d="M170.667 102.4c-75.405 0-136.533 61.128-136.533 136.533s61.128 136.533 136.533 136.533S307.2 314.339 307.2 238.933c-.089-75.368-61.165-136.444-136.533-136.533zm0 256c-65.98 0-119.467-53.487-119.467-119.467s53.487-119.467 119.467-119.467 119.467 53.487 119.467 119.467c-.071 65.951-53.517 119.396-119.467 119.467z" fill="#B05F34" data-original="#000000" class=""></path><path d="M221.79 208.06a40.597 40.597 0 0 1-11.401 8.166 32.027 32.027 0 0 1-3.413 1.442 69.026 69.026 0 0 0 13.286-34.082 37.436 37.436 0 0 0-10.419-30.669 53.912 53.912 0 0 0-18.773-12.314 46.7 46.7 0 0 0-40.055.853 32.11 32.11 0 0 0-17.186 18.244 25.447 25.447 0 0 0 5.862 28.049 41.277 41.277 0 0 1 8.175 11.392 31.964 31.964 0 0 1 1.417 3.362 68.902 68.902 0 0 0-34.074-13.21 37.598 37.598 0 0 0-30.566 10.385 53.97 53.97 0 0 0-12.297 18.773 46.638 46.638 0 0 0 .853 40.107 32.245 32.245 0 0 0 18.202 17.067 30.752 30.752 0 0 0 10.24 1.886 25.097 25.097 0 0 0 17.92-7.68 40.58 40.58 0 0 1 11.409-8.166 29.339 29.339 0 0 1 3.302-1.408 69.123 69.123 0 0 0-13.21 34.048 37.543 37.543 0 0 0 10.351 30.66 53.996 53.996 0 0 0 18.773 12.314 50.343 50.343 0 0 0 19.43 4.053 46.223 46.223 0 0 0 20.676-4.949 32.184 32.184 0 0 0 17.118-18.236 25.463 25.463 0 0 0-5.862-28.015 41.258 41.258 0 0 1-8.158-11.435 31.565 31.565 0 0 1-1.417-3.311 69.119 69.119 0 0 0 34.057 13.21c1.446.152 2.898.229 4.352.23a37.446 37.446 0 0 0 26.308-10.641 54.106 54.106 0 0 0 12.322-18.773 46.695 46.695 0 0 0-.913-40.107 32.23 32.23 0 0 0-18.185-17.067 25.415 25.415 0 0 0-28.124 5.822zm-72.457 30.873c0-11.782 9.551-21.333 21.333-21.333a21.333 21.333 0 0 1-.06 42.667c-11.758-.033-21.273-9.575-21.273-21.334zm.657-73.497c1.58-3.905 4.678-7 8.585-8.576a29.926 29.926 0 0 1 26.001-.452 36.94 36.94 0 0 1 12.971 8.363 20.311 20.311 0 0 1 5.769 17.067 51.66 51.66 0 0 1-10.24 26.052 38.03 38.03 0 0 0-22.332-7.33c-1.38.066-2.756.205-4.122.418a39.914 39.914 0 0 0-3.277-9.233 59.066 59.066 0 0 0-11.486-16.043 8.533 8.533 0 0 1-1.869-10.308zm-26.538 80.947a57.833 57.833 0 0 0-16.009 11.46 8.533 8.533 0 0 1-10.334 1.775 15.582 15.582 0 0 1-8.593-8.533 29.87 29.87 0 0 1-.427-26.027 37.037 37.037 0 0 1 8.346-12.988 20.37 20.37 0 0 1 17.067-5.743 52.343 52.343 0 0 1 26.095 10.24 38.05 38.05 0 0 0-7.33 22.306c.065 1.395.205 2.785.418 4.164a38.993 38.993 0 0 0-9.233 3.302zm67.848 66.159a15.512 15.512 0 0 1-8.533 8.533 29.868 29.868 0 0 1-25.993.461 37 37 0 0 1-12.988-8.346 20.402 20.402 0 0 1-5.751-17.109 51.76 51.76 0 0 1 10.24-26.069 37.972 37.972 0 0 0 22.298 7.339h.094c1.38-.056 2.756-.19 4.122-.401a39.166 39.166 0 0 0 3.311 9.225 58.689 58.689 0 0 0 11.443 16.034 8.601 8.601 0 0 1 1.758 10.291v.042zm61.952-59.648a36.86 36.86 0 0 1-8.329 12.971 20.48 20.48 0 0 1-17.126 5.769 52.442 52.442 0 0 1-26.078-10.24 33.648 33.648 0 0 0 6.929-26.453 38.956 38.956 0 0 0 9.242-3.302 57.863 57.863 0 0 0 16.034-11.486 8.534 8.534 0 0 1 10.3-1.758 15.659 15.659 0 0 1 8.533 8.533 29.929 29.929 0 0 1 .495 25.924zM460.8 110.933h-34.133a8.533 8.533 0 0 0 0 17.066H460.8c4.713 0 8.533-3.82 8.533-8.533s-3.82-8.533-8.533-8.533z" fill="#B05F34" data-original="#000000" class=""></path><circle cx="426.667" cy="153.6" r="8.533" fill="#B05F34" data-original="#000000" class=""></circle><circle cx="460.8" cy="153.6" r="8.533" fill="#B05F34" data-original="#000000" class=""></circle><path d="M460.8 179.2H349.867a8.533 8.533 0 0 0 0 17.066H460.8a8.533 8.533 0 0 0 0-17.066zM460.8 213.333H349.867a8.533 8.533 0 0 0 0 17.066H460.8a8.533 8.533 0 0 0 0-17.066zM460.8 247.467H349.867a8.533 8.533 0 0 0 0 17.066H460.8a8.533 8.533 0 0 0 0-17.066zM460.8 281.6H349.867a8.533 8.533 0 0 0 0 17.066H460.8a8.533 8.533 0 0 0 0-17.066zM460.8 315.733H349.867a8.533 8.533 0 0 0 0 17.066H460.8c4.713 0 8.533-3.82 8.533-8.533s-3.82-8.533-8.533-8.533zM460.8 349.867H349.867a8.533 8.533 0 0 0 0 17.066H460.8c4.713 0 8.533-3.82 8.533-8.533s-3.82-8.533-8.533-8.533z" fill="#B05F34" data-original="#000000" class=""></path></g>
</svg>
