<svg clip-rule="evenodd" fill-rule="evenodd" stroke-linejoin="round" stroke-miterlimit="2" viewBox="0 0 500 300" xmlns="http://www.w3.org/2000/svg"><g fill="#b05f34" fill-rule="nonzero"><path d="m163.941 110.352.266 17.527c.477-1.277 1.109-15.984 14.477-17.527zm48.039 0h-14.742c13.367 1.543 13.996 16.253 14.477 17.527zm-13.589 55.851h-21.196c1.274 0 2.231-.305 2.868-.914.636-.609 1.101-1.383 1.394-2.312.293-.93.453-1.926.477-2.989.027-1.062.043-2.043.043-2.949v-46.609h11.632v47.57c0 .902.024 1.832.079 2.785.05.957.238 1.836.558 2.633.317.793.797 1.461 1.434 1.992.636.528 1.543.793 2.711.793zm-8.246-3.719c-.086-.484-.141-.988-.168-1.496-.059-1.008-.086-2.015-.086-2.992v-43.848h-4.2v42.895c0 .914-.011 1.937-.039 3.039-.023.82-.105 1.629-.25 2.402z" transform="matrix(2.25393 0 0 2.25393 -167.36 -243.735)"/><path d="m12.172 0h-1.125c-.449 0-.672-.238-.672-.719v-21.922h-8.078c-.481 0-.719-.238-.719-.718v-.469c0-.477.238-.719.719-.719h18.625c.476 0 .719.242.719.719v.469c0 .48-.243.718-.719.718h-8.063v21.922c0 .481-.23.719-.687.719z" transform="matrix(2.25393 0 0 2.25393 10.1043 243.853)"/><path d="m15.078-10.984 7.391 10.125c.164.242.207.445.125.609-.086.168-.274.25-.563.25h-1.468c-.387 0-.68-.145-.875-.438l-7.625-10.5h-5.688v10.219c0 .481-.242.719-.719.719h-1.078c-.48 0-.719-.238-.719-.719v-23.109c0-.477.239-.719.719-.719h9.531c2.446 0 4.336.594 5.672 1.781 1.332 1.188 2 2.86 2 5.016 0 2.023-.578 3.617-1.734 4.781-1.149 1.156-2.805 1.821-4.969 1.985zm-1.469-11.657h-7.234v9.828h7.234c3.696 0 5.547-1.644 5.547-4.937 0-3.258-1.851-4.891-5.547-4.891z" transform="matrix(2.25393 0 0 2.25393 70.5549 243.853)"/><path d="m3.234 0h-.75c-.261 0-.445-.078-.546-.234-.094-.157-.094-.352 0-.594l9.625-23.469c.187-.363.46-.547.828-.547h.609c.406 0 .68.184.828.547l9.641 23.469c.094.242.086.437-.016.594-.105.156-.293.234-.562.234h-1.219c-.367 0-.641-.18-.828-.547l-2.344-5.797h-12.094l-2.343 5.797c-.168.367-.446.547-.829.547zm9.219-21.203-5.25 12.922h10.516z" transform="matrix(2.25393 0 0 2.25393 134.738 243.853)"/><path d="m13.172 0h-8.594c-.48 0-.719-.238-.719-.719v-23.109c0-.477.239-.719.719-.719h8.594c3.937 0 7.008 1.09 9.219 3.266 2.226 2.187 3.343 5.187 3.343 9 0 3.773-1.117 6.761-3.343 8.968-2.25 2.211-5.325 3.313-9.219 3.313zm-6.797-22.641v20.735h6.484c3.258 0 5.774-.899 7.547-2.703 1.782-1.801 2.672-4.36 2.672-7.672 0-3.313-.89-5.864-2.672-7.657-1.773-1.8-4.289-2.703-7.547-2.703z" transform="matrix(2.25393 0 0 2.25393 200.057 243.853)"/><path d="m5.656 0h-1.078c-.48 0-.719-.238-.719-.719v-23.109c0-.477.239-.719.719-.719h1.078c.477 0 .719.242.719.719v23.109c0 .481-.242.719-.719.719z" transform="matrix(2.25393 0 0 2.25393 271.786 243.853)"/><path d="m15.156.359c-3.773 0-6.836-1.175-9.187-3.531-2.344-2.351-3.516-5.391-3.516-9.109 0-3.719 1.172-6.754 3.516-9.11 2.351-2.343 5.414-3.515 9.187-3.515 2.758 0 5.196.683 7.313 2.047.426.261.484.586.172.968l-.328.469c-.262.336-.586.383-.969.141-1.75-1.145-3.75-1.719-6-1.719-3.074 0-5.547.984-7.422 2.953s-2.813 4.559-2.813 7.766c0 3.168.938 5.75 2.813 7.75 1.875 1.992 4.332 2.984 7.375 2.984 2.426 0 4.562-.66 6.406-1.984.406-.258.735-.211.985.14l.312.469c.27.387.234.715-.109.984-2.25 1.532-4.828 2.297-7.735 2.297z" transform="matrix(2.25393 0 0 2.25393 302.945 243.853)"/><path d="m5.656 0h-1.078c-.48 0-.719-.238-.719-.719v-23.109c0-.477.239-.719.719-.719h1.078c.477 0 .719.242.719.719v23.109c0 .481-.242.719-.719.719z" transform="matrix(2.25393 0 0 2.25393 367.615 243.853)"/><path d="m2.016 3.703c-.461.07-.727-.105-.797-.531l-.11-.547c-.062-.461.129-.719.579-.781 1.062-.25 1.828-.778 2.296-1.578.469-.801.704-1.969.704-3.5v-20.594c0-.477.238-.719.718-.719h1.078c.477 0 .719.242.719.719v20.406c0 2.024-.449 3.633-1.344 4.844-.886 1.207-2.168 1.969-3.843 2.281z" transform="matrix(2.25393 0 0 2.25393 398.773 243.853)"/><path d="m3.234 0h-.75c-.261 0-.445-.078-.546-.234-.094-.157-.094-.352 0-.594l9.625-23.469c.187-.363.46-.547.828-.547h.609c.406 0 .68.184.828.547l9.641 23.469c.094.242.086.437-.016.594-.105.156-.293.234-.562.234h-1.219c-.367 0-.641-.18-.828-.547l-2.344-5.797h-12.094l-2.343 5.797c-.168.367-.446.547-.829.547zm9.219-21.203-5.25 12.922h10.516z" transform="matrix(2.25393 0 0 2.25393 431.392 243.853)"/><g transform="matrix(2.67166 0 0 2.67166 -77.5839 228.211)"><path d="m94.385 23.063v-7.507h3.167c.325 0 .623.068.892.203.27.136.504.316.704.542.199.226.354.479.465.76.11.28.166.566.166.858 0 .358-.07.695-.21 1.013-.14.317-.335.585-.586.804-.25.218-.544.361-.879.429l1.843 2.898h-.836l-1.768-2.771h-2.225v2.771zm.733-3.43h2.463c.296 0 .553-.081.769-.242.217-.161.386-.373.506-.635.121-.263.181-.542.181-.837 0-.305-.069-.587-.209-.846-.139-.259-.323-.466-.553-.623-.229-.156-.482-.235-.76-.235h-2.397z"/><path d="m106.33 22.404v.659h-5.046v-7.507h4.951v.659h-4.217v2.703h3.676v.622h-3.676v2.864z" transform="translate(1.13328)"/><path d="m112.063 16.96c-.104-.117-.227-.224-.371-.321s-.303-.181-.476-.251c-.173-.071-.361-.127-.562-.168-.202-.04-.416-.061-.641-.061-.659 0-1.142.126-1.449.376-.307.251-.461.59-.461 1.019 0 .295.074.527.221.698s.376.309.685.415.704.213 1.187.32c.532.113.992.248 1.381.405s.688.368.898.633c.209.265.314.622.314 1.071 0 .343-.066.643-.198.899-.133.256-.319.468-.561.636-.241.169-.527.294-.858.376-.33.082-.692.123-1.086.123-.387 0-.758-.041-1.115-.123s-.693-.203-1.009-.363-.613-.361-.891-.602l.368-.607c.135.142.297.275.484.399s.395.234.624.33c.229.097.475.172.739.227s.536.082.818.082c.598 0 1.065-.11 1.402-.329.336-.22.505-.544.505-.971 0-.309-.085-.557-.254-.744-.168-.187-.421-.341-.759-.463s-.756-.24-1.254-.352c-.52-.121-.959-.254-1.317-.399-.358-.146-.627-.34-.808-.584-.181-.243-.272-.566-.272-.967 0-.466.114-.861.341-1.183.228-.322.544-.565.949-.73.404-.165.866-.248 1.385-.248.332 0 .64.034.924.101.284.068.549.165.793.293s.47.286.678.475z" transform="translate(2.26655)"/><path d="m119.405 16.215h-2.674v6.848h-.734v-6.848h-2.674v-.659h6.082z" transform="translate(3.39983)"/><path d="m123.286 23.116c-.525 0-1.002-.107-1.432-.319-.43-.213-.801-.5-1.114-.862-.312-.362-.553-.77-.722-1.225-.169-.454-.254-.921-.254-1.401 0-.5.089-.977.268-1.432s.428-.86.748-1.216c.319-.356.693-.638 1.122-.846s.895-.312 1.399-.312c.526 0 1.004.11 1.433.328.429.219.798.511 1.107.878.309.366.548.775.717 1.226.17.451.254.912.254 1.382 0 .502-.088.981-.264 1.436-.176.454-.424.86-.744 1.215-.32.356-.693.637-1.121.841s-.894.307-1.397.307zm-2.781-3.807c0 .406.067.798.202 1.175.135.378.325.714.572 1.007.246.294.54.527.882.699.342.173.72.259 1.132.259.427 0 .811-.09 1.153-.269.342-.18.634-.42.876-.72.242-.301.427-.638.556-1.013.128-.374.193-.753.193-1.138 0-.405-.068-.795-.204-1.171-.136-.375-.328-.71-.577-1.007-.248-.296-.542-.529-.881-.699-.338-.17-.71-.255-1.116-.255-.426 0-.811.089-1.154.266-.344.177-.636.416-.878.716-.241.301-.428.637-.559 1.009s-.197.752-.197 1.141z" transform="translate(4.5331)"/><path d="m128.202 23.063v-7.507h3.167c.326 0 .623.068.893.203.269.136.504.316.703.542s.354.479.465.76c.111.28.166.566.166.858 0 .358-.07.695-.21 1.013-.139.317-.335.585-.585.804-.251.218-.544.361-.88.429l1.843 2.898h-.835l-1.769-2.771h-2.224v2.771zm.734-3.43h2.463c.296 0 .552-.081.769-.242.216-.161.385-.373.506-.635.12-.263.181-.542.181-.837 0-.305-.07-.587-.209-.846-.14-.259-.324-.466-.553-.623-.229-.156-.483-.235-.761-.235h-2.396z" transform="translate(6.0174 .053231)"/><path d="m137.394 15.556h.623l3.125 7.507h-.784l-.973-2.342h-3.377l-.965 2.342h-.785zm1.814 4.58-1.503-3.714-1.538 3.714z" transform="translate(7.61164 -.003176)"/><path d="m142.952 16.916v6.147h-.734v-7.507h.614l4.928 6.26v-6.252h.733v7.499h-.683z" transform="translate(8.74492 -.003176)"/></g></g></svg>