<?xml version="1.0" encoding="UTF-8" standalone="no"?>
<!DOCTYPE svg PUBLIC "-//W3C//DTD SVG 1.1//EN" "http://www.w3.org/Graphics/SVG/1.1/DTD/svg11.dtd">
<svg width="100%" height="100%" viewBox="0 0 120 30" version="1.1" xmlns="http://www.w3.org/2000/svg" xmlns:xlink="http://www.w3.org/1999/xlink" xml:space="preserve" xmlns:serif="http://www.serif.com/" style="fill-rule:evenodd;clip-rule:evenodd;stroke-linejoin:round;stroke-miterlimit:2;">
    <g transform="matrix(0.561798,0,0,0.561798,0.19832,15.6398)">
        <g>
            <path d="M12.172,0L11.047,0C10.598,0 10.375,-0.238 10.375,-0.719L10.375,-22.641L2.297,-22.641C1.816,-22.641 1.578,-22.879 1.578,-23.359L1.578,-23.828C1.578,-24.305 1.816,-24.547 2.297,-24.547L20.922,-24.547C21.398,-24.547 21.641,-24.305 21.641,-23.828L21.641,-23.359C21.641,-22.879 21.398,-22.641 20.922,-22.641L12.859,-22.641L12.859,-0.719C12.859,-0.238 12.629,0 12.172,0Z" style="fill:rgb(176,95,52);fill-rule:nonzero;"/>
        </g>
    </g>
    <g transform="matrix(0.561798,0,0,0.561798,15.2658,15.6398)">
        <g>
            <path d="M15.078,-10.984L22.469,-0.859C22.633,-0.617 22.676,-0.414 22.594,-0.25C22.508,-0.082 22.32,0 22.031,0L20.563,0C20.176,0 19.883,-0.145 19.688,-0.438L12.063,-10.938L6.375,-10.938L6.375,-0.719C6.375,-0.238 6.133,0 5.656,0L4.578,0C4.098,0 3.859,-0.238 3.859,-0.719L3.859,-23.828C3.859,-24.305 4.098,-24.547 4.578,-24.547L14.109,-24.547C16.555,-24.547 18.445,-23.953 19.781,-22.766C21.113,-21.578 21.781,-19.906 21.781,-17.75C21.781,-15.727 21.203,-14.133 20.047,-12.969C18.898,-11.813 17.242,-11.148 15.078,-10.984ZM13.609,-22.641L6.375,-22.641L6.375,-12.813L13.609,-12.813C17.305,-12.813 19.156,-14.457 19.156,-17.75C19.156,-21.008 17.305,-22.641 13.609,-22.641Z" style="fill:rgb(176,95,52);fill-rule:nonzero;"/>
        </g>
    </g>
    <g transform="matrix(0.561798,0,0,0.561798,31.2636,15.6398)">
        <g>
            <path d="M3.234,0L2.484,0C2.223,0 2.039,-0.078 1.938,-0.234C1.844,-0.391 1.844,-0.586 1.938,-0.828L11.563,-24.297C11.75,-24.66 12.023,-24.844 12.391,-24.844L13,-24.844C13.406,-24.844 13.68,-24.66 13.828,-24.297L23.469,-0.828C23.563,-0.586 23.555,-0.391 23.453,-0.234C23.348,-0.078 23.16,0 22.891,0L21.672,0C21.305,0 21.031,-0.18 20.844,-0.547L18.5,-6.344L6.406,-6.344L4.063,-0.547C3.895,-0.18 3.617,0 3.234,0ZM12.453,-21.203L7.203,-8.281L17.719,-8.281L12.453,-21.203Z" style="fill:rgb(176,95,52);fill-rule:nonzero;"/>
        </g>
    </g>
    <g transform="matrix(0.561798,0,0,0.561798,47.5445,15.6398)">
        <g>
            <path d="M13.172,0L4.578,0C4.098,0 3.859,-0.238 3.859,-0.719L3.859,-23.828C3.859,-24.305 4.098,-24.547 4.578,-24.547L13.172,-24.547C17.109,-24.547 20.18,-23.457 22.391,-21.281C24.617,-19.094 25.734,-16.094 25.734,-12.281C25.734,-8.508 24.617,-5.52 22.391,-3.313C20.141,-1.102 17.066,0 13.172,0ZM6.375,-22.641L6.375,-1.906L12.859,-1.906C16.117,-1.906 18.633,-2.805 20.406,-4.609C22.188,-6.41 23.078,-8.969 23.078,-12.281C23.078,-15.594 22.188,-18.145 20.406,-19.938C18.633,-21.738 16.117,-22.641 12.859,-22.641L6.375,-22.641Z" style="fill:rgb(176,95,52);fill-rule:nonzero;"/>
        </g>
    </g>
    <g transform="matrix(0.561798,0,0,0.561798,65.4232,15.6398)">
        <g>
            <path d="M5.656,0L4.578,0C4.098,0 3.859,-0.238 3.859,-0.719L3.859,-23.828C3.859,-24.305 4.098,-24.547 4.578,-24.547L5.656,-24.547C6.133,-24.547 6.375,-24.305 6.375,-23.828L6.375,-0.719C6.375,-0.238 6.133,0 5.656,0Z" style="fill:rgb(176,95,52);fill-rule:nonzero;"/>
        </g>
    </g>
    <g transform="matrix(0.561798,0,0,0.561798,73.1895,15.6398)">
        <g>
            <path d="M15.156,0.359C11.383,0.359 8.32,-0.816 5.969,-3.172C3.625,-5.523 2.453,-8.563 2.453,-12.281C2.453,-16 3.625,-19.035 5.969,-21.391C8.32,-23.734 11.383,-24.906 15.156,-24.906C17.914,-24.906 20.352,-24.223 22.469,-22.859C22.895,-22.598 22.953,-22.273 22.641,-21.891L22.313,-21.422C22.051,-21.086 21.727,-21.039 21.344,-21.281C19.594,-22.426 17.594,-23 15.344,-23C12.27,-23 9.797,-22.016 7.922,-20.047C6.047,-18.078 5.109,-15.488 5.109,-12.281C5.109,-9.113 6.047,-6.531 7.922,-4.531C9.797,-2.539 12.254,-1.547 15.297,-1.547C17.723,-1.547 19.859,-2.207 21.703,-3.531C22.109,-3.789 22.438,-3.742 22.688,-3.391L23,-2.922C23.27,-2.535 23.234,-2.207 22.891,-1.938C20.641,-0.406 18.063,0.359 15.156,0.359Z" style="fill:rgb(176,95,52);fill-rule:nonzero;"/>
        </g>
    </g>
    <g transform="matrix(0.561798,0,0,0.561798,89.3087,15.6398)">
        <g>
            <path d="M5.656,0L4.578,0C4.098,0 3.859,-0.238 3.859,-0.719L3.859,-23.828C3.859,-24.305 4.098,-24.547 4.578,-24.547L5.656,-24.547C6.133,-24.547 6.375,-24.305 6.375,-23.828L6.375,-0.719C6.375,-0.238 6.133,0 5.656,0Z" style="fill:rgb(176,95,52);fill-rule:nonzero;"/>
        </g>
    </g>
    <g transform="matrix(0.561798,0,0,0.561798,97.075,15.6398)">
        <g>
            <path d="M2.016,3.703C1.555,3.773 1.289,3.598 1.219,3.172L1.109,2.625C1.047,2.164 1.238,1.906 1.688,1.844C2.75,1.594 3.516,1.066 3.984,0.266C4.453,-0.535 4.688,-1.703 4.688,-3.234L4.688,-23.828C4.688,-24.305 4.926,-24.547 5.406,-24.547L6.484,-24.547C6.961,-24.547 7.203,-24.305 7.203,-23.828L7.203,-3.422C7.203,-1.398 6.754,0.211 5.859,1.422C4.973,2.629 3.691,3.391 2.016,3.703Z" style="fill:rgb(176,95,52);fill-rule:nonzero;"/>
        </g>
    </g>
    <g transform="matrix(0.561798,0,0,0.561798,105.205,15.6398)">
        <g>
            <path d="M3.234,0L2.484,0C2.223,0 2.039,-0.078 1.938,-0.234C1.844,-0.391 1.844,-0.586 1.938,-0.828L11.563,-24.297C11.75,-24.66 12.023,-24.844 12.391,-24.844L13,-24.844C13.406,-24.844 13.68,-24.66 13.828,-24.297L23.469,-0.828C23.563,-0.586 23.555,-0.391 23.453,-0.234C23.348,-0.078 23.16,0 22.891,0L21.672,0C21.305,0 21.031,-0.18 20.844,-0.547L18.5,-6.344L6.406,-6.344L4.063,-0.547C3.895,-0.18 3.617,0 3.234,0ZM12.453,-21.203L7.203,-8.281L17.719,-8.281L12.453,-21.203Z" style="fill:rgb(176,95,52);fill-rule:nonzero;"/>
        </g>
    </g>
    <g transform="matrix(0.882398,0,0,0.882398,-50.2083,8.7223)">
        <path d="M94.385,23.063L94.385,15.556L97.552,15.556C97.877,15.556 98.175,15.624 98.444,15.759C98.714,15.895 98.948,16.075 99.148,16.301C99.347,16.527 99.502,16.78 99.613,17.061C99.723,17.341 99.779,17.627 99.779,17.919C99.779,18.277 99.709,18.614 99.569,18.932C99.429,19.249 99.234,19.517 98.983,19.736C98.733,19.954 98.439,20.097 98.104,20.165L99.947,23.063L99.111,23.063L97.343,20.292L95.118,20.292L95.118,23.063L94.385,23.063ZM95.118,19.633L97.581,19.633C97.877,19.633 98.134,19.552 98.35,19.391C98.567,19.23 98.736,19.018 98.856,18.756C98.977,18.493 99.037,18.214 99.037,17.919C99.037,17.614 98.968,17.332 98.828,17.073C98.689,16.814 98.505,16.607 98.275,16.45C98.046,16.294 97.793,16.215 97.515,16.215L95.118,16.215L95.118,19.633Z" style="fill:rgb(176,95,52);fill-rule:nonzero;"/>
        <g transform="matrix(1,0,0,1,1.13328,0)">
            <path d="M106.33,22.404L106.33,23.063L101.284,23.063L101.284,15.556L106.235,15.556L106.235,16.215L102.018,16.215L102.018,18.918L105.694,18.918L105.694,19.54L102.018,19.54L102.018,22.404L106.33,22.404Z" style="fill:rgb(176,95,52);fill-rule:nonzero;"/>
        </g>
        <g transform="matrix(1,0,0,1,2.26655,0)">
            <path d="M112.063,16.96C111.959,16.843 111.836,16.736 111.692,16.639C111.548,16.542 111.389,16.458 111.216,16.388C111.043,16.317 110.855,16.261 110.654,16.22C110.452,16.18 110.238,16.159 110.013,16.159C109.354,16.159 108.871,16.285 108.564,16.535C108.257,16.786 108.103,17.125 108.103,17.554C108.103,17.849 108.177,18.081 108.324,18.252C108.471,18.423 108.7,18.561 109.009,18.667C109.318,18.773 109.713,18.88 110.196,18.987C110.728,19.1 111.188,19.235 111.577,19.392C111.966,19.549 112.265,19.76 112.475,20.025C112.684,20.29 112.789,20.647 112.789,21.096C112.789,21.439 112.723,21.739 112.591,21.995C112.458,22.251 112.272,22.463 112.03,22.631C111.789,22.8 111.503,22.925 111.172,23.007C110.842,23.089 110.48,23.13 110.086,23.13C109.699,23.13 109.328,23.089 108.971,23.007C108.614,22.925 108.278,22.804 107.962,22.644C107.646,22.484 107.349,22.283 107.071,22.042L107.439,21.435C107.574,21.577 107.736,21.71 107.923,21.834C108.11,21.958 108.318,22.068 108.547,22.164C108.776,22.261 109.022,22.336 109.286,22.391C109.55,22.446 109.822,22.473 110.104,22.473C110.702,22.473 111.169,22.363 111.506,22.144C111.842,21.924 112.011,21.6 112.011,21.173C112.011,20.864 111.926,20.616 111.757,20.429C111.589,20.242 111.336,20.088 110.998,19.966C110.66,19.844 110.242,19.726 109.744,19.614C109.224,19.493 108.785,19.36 108.427,19.215C108.069,19.069 107.8,18.875 107.619,18.631C107.438,18.388 107.347,18.065 107.347,17.664C107.347,17.198 107.461,16.803 107.688,16.481C107.916,16.159 108.232,15.916 108.637,15.751C109.041,15.586 109.503,15.503 110.022,15.503C110.354,15.503 110.662,15.537 110.946,15.604C111.23,15.672 111.495,15.769 111.739,15.897C111.983,16.025 112.209,16.183 112.417,16.372L112.063,16.96Z" style="fill:rgb(176,95,52);fill-rule:nonzero;"/>
        </g>
        <g transform="matrix(1,0,0,1,3.39983,0)">
            <path d="M119.405,16.215L116.731,16.215L116.731,23.063L115.997,23.063L115.997,16.215L113.323,16.215L113.323,15.556L119.405,15.556L119.405,16.215Z" style="fill:rgb(176,95,52);fill-rule:nonzero;"/>
        </g>
        <g transform="matrix(1,0,0,1,4.5331,0)">
            <path d="M123.286,23.116C122.761,23.116 122.284,23.009 121.854,22.797C121.424,22.584 121.053,22.297 120.74,21.935C120.428,21.573 120.187,21.165 120.018,20.71C119.849,20.256 119.764,19.789 119.764,19.309C119.764,18.809 119.853,18.332 120.032,17.877C120.211,17.422 120.46,17.017 120.78,16.661C121.099,16.305 121.473,16.023 121.902,15.815C122.331,15.607 122.797,15.503 123.301,15.503C123.827,15.503 124.305,15.613 124.734,15.831C125.163,16.05 125.532,16.342 125.841,16.709C126.15,17.075 126.389,17.484 126.558,17.935C126.728,18.386 126.812,18.847 126.812,19.317C126.812,19.819 126.724,20.298 126.548,20.753C126.372,21.207 126.124,21.613 125.804,21.968C125.484,22.324 125.111,22.605 124.683,22.809C124.255,23.013 123.789,23.116 123.286,23.116ZM120.505,19.309C120.505,19.715 120.572,20.107 120.707,20.484C120.842,20.862 121.032,21.198 121.279,21.491C121.525,21.785 121.819,22.018 122.161,22.19C122.503,22.363 122.881,22.449 123.293,22.449C123.72,22.449 124.104,22.359 124.446,22.18C124.788,22 125.08,21.76 125.322,21.46C125.564,21.159 125.749,20.822 125.878,20.447C126.006,20.073 126.071,19.694 126.071,19.309C126.071,18.904 126.003,18.514 125.867,18.138C125.731,17.763 125.539,17.428 125.29,17.131C125.042,16.835 124.748,16.602 124.409,16.432C124.071,16.262 123.699,16.177 123.293,16.177C122.867,16.177 122.482,16.266 122.139,16.443C121.795,16.62 121.503,16.859 121.261,17.159C121.02,17.46 120.833,17.796 120.702,18.168C120.571,18.54 120.505,18.92 120.505,19.309Z" style="fill:rgb(176,95,52);fill-rule:nonzero;"/>
        </g>
        <g transform="matrix(1,0,0,1,6.0174,0.053231)">
            <path d="M128.202,23.063L128.202,15.556L131.369,15.556C131.695,15.556 131.992,15.624 132.262,15.759C132.531,15.895 132.766,16.075 132.965,16.301C133.164,16.527 133.319,16.78 133.43,17.061C133.541,17.341 133.596,17.627 133.596,17.919C133.596,18.277 133.526,18.614 133.386,18.932C133.247,19.249 133.051,19.517 132.801,19.736C132.55,19.954 132.257,20.097 131.921,20.165L133.764,23.063L132.929,23.063L131.16,20.292L128.936,20.292L128.936,23.063L128.202,23.063ZM128.936,19.633L131.399,19.633C131.695,19.633 131.951,19.552 132.168,19.391C132.384,19.23 132.553,19.018 132.674,18.756C132.794,18.493 132.855,18.214 132.855,17.919C132.855,17.614 132.785,17.332 132.646,17.073C132.506,16.814 132.322,16.607 132.093,16.45C131.864,16.294 131.61,16.215 131.332,16.215L128.936,16.215L128.936,19.633Z" style="fill:rgb(176,95,52);fill-rule:nonzero;"/>
        </g>
        <g transform="matrix(1,0,0,1,7.61164,-0.00317607)">
            <path d="M137.394,15.556L138.017,15.556L141.142,23.063L140.358,23.063L139.385,20.721L136.008,20.721L135.043,23.063L134.258,23.063L137.394,15.556ZM139.208,20.136L137.705,16.422L136.167,20.136L139.208,20.136Z" style="fill:rgb(176,95,52);fill-rule:nonzero;"/>
        </g>
        <g transform="matrix(1,0,0,1,8.74492,-0.00317607)">
            <path d="M142.952,16.916L142.952,23.063L142.218,23.063L142.218,15.556L142.832,15.556L147.76,21.816L147.76,15.564L148.493,15.564L148.493,23.063L147.81,23.063L142.952,16.916Z" style="fill:rgb(176,95,52);fill-rule:nonzero;"/>
        </g>
    </g>
</svg>
