<svg xmlns="http://www.w3.org/2000/svg" version="1.1" xmlns:xlink="http://www.w3.org/1999/xlink" width="512" height="512" x="0" y="0" viewBox="0 0 512 512" style="enable-background:new 0 0 512 512" xml:space="preserve" class=""><g><path d="M17.52 179.15v-45.47c0-14.69 11.91-26.6 26.6-26.6H87.8M17.52 356.96V214.15M360.854 451.594a26.505 26.505 0 0 1-18.208 7.209H44.118c-14.69 0-26.599-11.909-26.599-26.599v-27.502M299.535 107.078h43.111c14.69 0 26.599 11.909 26.599 26.599v31.876M155.657 107.078h76.02M141.094 53.197H246.24M210.014 457.259l-26.508-52.874M221.412 404.501l12.079 52.835M157.723 352.957l-29.297-58.437a383.083 383.083 0 0 1-40.627-171.688v0a38.332 38.332 0 0 1 11.08-26.957l42.216-42.68 68.367 299.033M229.61 352.96l29.3-58.44a383.394 383.394 0 0 0 30.33-83.48c1.71-7.21 3.21-14.47 4.5-21.77M298.22 154.56c.88-10.53 1.32-21.12 1.32-31.73 0-10.09-3.99-19.78-11.08-26.95L246.24 53.2l-52.05 227.67M97.46 402.59H11.92c-2.44 0-4.42-1.98-4.42-4.42v-34.84c0-2.45 1.98-4.43 4.42-4.43h323.83M337.09 402.59H132.46" style="stroke-width:15;stroke-linecap:round;stroke-linejoin:round;stroke-miterlimit:10;" fill="none" stroke="#B05F34" stroke-width="15" stroke-linecap="round" stroke-linejoin="round" stroke-miterlimit="10" data-original="#000000" class=""></path><path d="M410.03 454.96a51.511 51.511 0 0 1-19.583 3.843h0c-27.689 0-50.454-21.829-51.617-49.493l-3.076-73.19M374.63 332.558h-43.567c-6.131 0-11.102-4.97-11.102-11.102v-87.083c0-38.928 31.558-70.486 70.486-70.486h0a70.478 70.478 0 0 1 20.859 3.137" style="stroke-width:15;stroke-linecap:round;stroke-linejoin:round;stroke-miterlimit:10;" fill="none" stroke="#B05F34" stroke-width="15" stroke-linecap="round" stroke-linejoin="round" stroke-miterlimit="10" data-original="#000000" class=""></path><path d="m488.813 333.59-3.182 75.72c-1.163 27.664-23.928 49.493-51.617 49.493h0c-27.689 0-50.454-21.829-51.617-49.493l-3.133-74.566M504.5 255.02v-20.65c0-19.47-7.89-37.09-20.65-49.84-12.75-12.75-30.37-20.64-49.84-20.64-38.92 0-70.48 31.55-70.48 70.48v87.09c0 6.13 4.97 11.1 11.1 11.1H493.4c6.13 0 11.1-4.97 11.1-11.1v-31.44M20.149 283.864h55.255c9.759 0 17.67 7.911 17.67 17.67v0c0 9.759-7.911 17.67-17.67 17.67H20.83" style="stroke-width:15;stroke-linecap:round;stroke-linejoin:round;stroke-miterlimit:10;" fill="none" stroke="#B05F34" stroke-width="15" stroke-linecap="round" stroke-linejoin="round" stroke-miterlimit="10" data-original="#000000" class=""></path><path d="M456.929 287.24H411.1c-9.759 0-17.67-7.911-17.67-17.67v0c0-9.759 7.911-17.67 17.67-17.67h45.829c9.759 0 17.67 7.911 17.67 17.67v0c0 9.759-7.911 17.67-17.67 17.67z" style="stroke-width:15;stroke-linecap:round;stroke-linejoin:round;stroke-miterlimit:10;" fill="none" stroke="#B05F34" stroke-width="15" stroke-linecap="round" stroke-linejoin="round" stroke-miterlimit="10" data-original="#000000" class=""></path></g></svg>
