<svg xmlns="http://www.w3.org/2000/svg" version="1.1" xmlns:xlink="http://www.w3.org/1999/xlink" width="512" height="512" x="0" y="0" viewBox="0 0 511.999 511.999" style="enable-background:new 0 0 512 512" xml:space="preserve" class=""><g transform="matrix(0.9600000000000002,0,0,0.9600000000000002,10.239960327148367,10.239960155486983)"><path d="M123.455.895C55.381.895 0 56.277 0 124.351v142.272a7.605 7.605 0 0 0 10.235 7.133l14.008-5.167v143.979c0 54.333 44.203 98.535 98.535 98.535 54.333 0 98.535-44.202 98.535-98.535V268.157l15.385 5.61a7.602 7.602 0 0 0 10.209-7.144V124.351C246.909 56.277 191.528.895 123.455.895zm82.652 411.674c0 45.947-37.38 83.327-83.327 83.327-45.946 0-83.327-37.38-83.327-83.327V263.302c54.149-17.167 112.43-17.29 166.654-.359v149.626zm25.594-156.813-8.086-2.947a292.728 292.728 0 0 0-100.263-17.686 292.74 292.74 0 0 0-101.3 18.066l-6.845 2.523v-33.906l12.107-4.466c61.569-22.712 129.432-22.839 191.09-.36l13.296 4.847v33.929zm.001-50.114-8.088-2.948c-65.036-23.712-136.619-23.576-201.563.38l-6.844 2.525V124.35c0-59.687 48.56-108.247 108.247-108.247s108.247 48.56 108.247 108.248v81.291zM388.544.895c-68.074 0-123.455 55.382-123.455 123.456v142.272a7.602 7.602 0 0 0 10.235 7.134l14.009-5.168v143.979c0 54.333 44.203 98.535 98.535 98.535 54.332 0 98.535-44.202 98.535-98.535V268.157l15.386 5.61a7.602 7.602 0 0 0 10.209-7.144V124.351C512 56.277 456.618.895 388.544.895zm82.653 411.675c0 45.946-37.38 83.326-83.327 83.326-45.947 0-83.327-37.38-83.327-83.327V263.303c54.149-17.167 112.431-17.29 166.654-.359V412.57zm25.595-156.812-8.088-2.949a292.722 292.722 0 0 0-100.262-17.686 292.758 292.758 0 0 0-101.3 18.065l-6.846 2.526v-33.906l12.109-4.467c61.569-22.71 129.433-22.838 191.089-.36l13.298 4.848v33.929zm0-50.115-8.088-2.948c-65.035-23.712-136.618-23.575-201.562.379l-6.846 2.525v-81.248c.001-59.688 48.56-108.248 108.248-108.248 59.687 0 108.247 48.56 108.247 108.248v81.292z" fill="#B05F34" opacity="1" data-original="#000000" class=""></path></g></svg>
