<svg xmlns="http://www.w3.org/2000/svg" version="1.1" xmlns:xlink="http://www.w3.org/1999/xlink" width="512" height="512" x="0" y="0" viewBox="0 0 64 64" style="enable-background:new 0 0 512 512" xml:space="preserve" class=""><g transform="matrix(0.9500000000000003,0,0,0.9500000000000003,1.6000000476837108,1.5999999999999908)"><path d="M63 40a8 8 0 0 0-8-8h-6a10 10 0 0 0-6-18h-3a7 7 0 0 0-4.79 12.1A3 3 0 0 0 33 29v2a3 3 0 0 0 .18 1H27a10 10 0 0 0-6-18h-3a7 7 0 0 0-4.79 12.1A3 3 0 0 0 11 29v2a3 3 0 0 0 .18 1H4a3 3 0 0 0-3 3v3a3 3 0 0 0 .77 2A3 3 0 0 0 1 42v3a3 3 0 0 0 2.75 3A8 8 0 0 0 9 62h51a3 3 0 0 0 3-3v-3a3 3 0 0 0-.77-2 3 3 0 0 0 .77-2v-3a3 3 0 0 0-2.75-3A8 8 0 0 0 63 40ZM35 29a1 1 0 0 1 1-1h7a4 4 0 0 0 0-8h-4v2h4a2 2 0 0 1 0 4h-3a5 5 0 0 1 0-10h3a8 8 0 0 1 0 16h-7a1 1 0 0 1-1-1Zm-22 0a1 1 0 0 1 1-1h7a4 4 0 0 0 0-8h-4v2h4a2 2 0 0 1 0 4h-3a5 5 0 0 1 0-10h3a8 8 0 0 1 0 16h-7a1 1 0 0 1-1-1Zm48 20v3a1 1 0 0 1-1 1H11v2h49a1 1 0 0 1 1 1v3a1 1 0 0 1-1 1H9a6 6 0 0 1 0-12h51a1 1 0 0 1 1 1Zm-6-3H4a1 1 0 0 1-1-1v-3a1 1 0 0 1 1-1h49v-2H4a1 1 0 0 1-1-1v-3a1 1 0 0 1 1-1h51a6 6 0 0 1 0 12ZM2 11a6 6 0 0 1 6 6 1 1 0 0 0 2 0 6 6 0 0 1 6-6 1 1 0 0 0 0-2 6 6 0 0 1-6-6 1 1 0 0 0-2 0 6 6 0 0 1-6 6 1 1 0 0 0 0 2Zm7-4.13A8.12 8.12 0 0 0 12.13 10 8.12 8.12 0 0 0 9 13.13 8.12 8.12 0 0 0 5.87 10 8.12 8.12 0 0 0 9 6.87ZM53.63 17.19A3.5 3.5 0 0 1 56 20.5a1 1 0 0 0 2 0 3.5 3.5 0 0 1 2.35-3.31 1 1 0 0 0 0-1.88A3.5 3.5 0 0 1 58 12a1 1 0 1 0-2 0 3.5 3.5 0 0 1-2.35 3.31 1 1 0 0 0 0 1.88Zm3.35-2a5.22 5.22 0 0 0 1 1.09 5.22 5.22 0 0 0-1 1.09 5.22 5.22 0 0 0-1-1.09A5.22 5.22 0 0 0 57 15.16Z" fill="#B05F34" opacity="1" data-original="#000000" class=""></path></g></svg>
