<svg xmlns="http://www.w3.org/2000/svg" version="1.1" xmlns:xlink="http://www.w3.org/1999/xlink" width="512" height="512" x="0" y="0" viewBox="0 0 54 60" style="enable-background:new 0 0 512 512" xml:space="preserve" class=""><g><g fill="#000" fill-rule="nonzero"><path d="M4.167 53.9V56a4 4 0 0 0 4 4H18a4 4 0 0 0 4-4v-2h10v2a4 4 0 0 0 4 4h9.833a4 4 0 0 0 4-4v-2.084A5 5 0 0 0 54 49V5a5.006 5.006 0 0 0-5-5H5.17a5.006 5.006 0 0 0-5 5v4a1 1 0 1 0 2 0V5a3 3 0 0 1 3-3H49a3 3 0 0 1 3 3v44a3 3 0 0 1-3 3H5.17a3 3 0 0 1-3-3V14a1 1 0 0 0-2 0v35a5.009 5.009 0 0 0 3.997 4.9zm43.666.1v2a2 2 0 0 1-2 2H36a2 2 0 0 1-2-2v-2zM20 54v2a2 2 0 0 1-2 2H8.167a2 2 0 0 1-2-2v-2z" fill="#B05F34" opacity="1" data-original="#000000" class=""></path><path d="M8 34a1 1 0 0 0-1 1v9a3 3 0 0 0 3 3h34a3 3 0 0 0 3-3v-1a3 3 0 0 0 3-3v-6a3 3 0 0 0-3-3v-8a3 3 0 0 0 3-3v-6a3 3 0 0 0-3-3v-1a3 3 0 0 0-3-3H10a3 3 0 0 0-3 3v20a1 1 0 0 0 2 0V10a1 1 0 0 1 1-1h34a1 1 0 0 1 1 1v1a3 3 0 0 0-3 3v6a3 3 0 0 0 3 3v8a3 3 0 0 0-3 3v6a3 3 0 0 0 3 3v1a1 1 0 0 1-1 1H10a1 1 0 0 1-1-1v-9a1 1 0 0 0-1-1zm36-14v-6a1 1 0 0 1 1-1h2a1 1 0 0 1 1 1v6a1 1 0 0 1-1 1h-2a1 1 0 0 1-1-1zm0 20v-6a1 1 0 0 1 1-1h2a1 1 0 0 1 1 1v6a1 1 0 0 1-1 1h-2a1 1 0 0 1-1-1z" fill="#B05F34" opacity="1" data-original="#000000" class=""></path><path d="M15.914 31.592a12 12 0 1 0 0-9.184 11.912 11.912 0 0 0 0 9.184zm6.354-13.4.364.878a1 1 0 1 0 1.847-.766l-.363-.878a9.909 9.909 0 0 1 5.768 0l-.363.878a1 1 0 1 0 1.847.766l.364-.879a9.913 9.913 0 0 1 4.078 4.079l-.878.364a1 1 0 1 0 .766 1.847l.878-.363a9.909 9.909 0 0 1 0 5.768l-.878-.363a1 1 0 1 0-.766 1.847l.879.364a9.913 9.913 0 0 1-4.079 4.078l-.364-.878a1 1 0 1 0-1.847.766l.363.878a9.909 9.909 0 0 1-5.768 0l.363-.878a1 1 0 1 0-1.847-.766l-.364.879a9.913 9.913 0 0 1-4.078-4.079l.878-.364a1 1 0 1 0-.766-1.847l-.878.363a9.909 9.909 0 0 1 0-5.768l.878.363a1 1 0 1 0 .766-1.847l-.879-.364a9.913 9.913 0 0 1 4.079-4.08z" fill="#B05F34" opacity="1" data-original="#000000" class=""></path><path d="M27.008 33a6 6 0 1 0-.019-12 6 6 0 0 0 .019 12zm-1.539-9.7a4 4 0 1 1-2.169 5.231 3.99 3.99 0 0 1 2.169-5.231zM17 11h-5a1 1 0 0 0-1 1v5a1 1 0 0 0 2 0v-4h4a1 1 0 0 0 0-2z" fill="#B05F34" opacity="1" data-original="#000000" class=""></path></g></g></svg>
