<?xml version="1.0" encoding="UTF-8" standalone="no"?>
<!DOCTYPE svg PUBLIC "-//W3C//DTD SVG 1.1//EN" "http://www.w3.org/Graphics/SVG/1.1/DTD/svg11.dtd">
<svg width="100%" height="100%" viewBox="0 0 120 30" version="1.1" xmlns="http://www.w3.org/2000/svg" xmlns:xlink="http://www.w3.org/1999/xlink" xml:space="preserve" xmlns:serif="http://www.serif.com/" style="fill-rule:evenodd;clip-rule:evenodd;stroke-linejoin:round;stroke-miterlimit:2;">
    <g transform="matrix(0.561798,0,0,0.561798,39.6728,20.95)">
        <g>
            <g transform="matrix(1,0,0,1,1.05912,12.0379)">
                <g>
                    <g>
                        <path d="M3.719,0.125C2.633,0.125 1.691,-0.172 0.891,-0.766C0.766,-0.848 0.75,-0.957 0.844,-1.094L0.953,-1.234C1.023,-1.359 1.129,-1.375 1.266,-1.281C1.973,-0.77 2.766,-0.516 3.641,-0.516C4.297,-0.516 4.82,-0.66 5.219,-0.953C5.613,-1.242 5.813,-1.633 5.813,-2.125C5.813,-2.551 5.672,-2.883 5.391,-3.125C5.086,-3.344 4.523,-3.539 3.703,-3.719C2.66,-3.945 1.945,-4.234 1.563,-4.578C1.156,-4.93 0.953,-5.426 0.953,-6.063C0.953,-6.738 1.207,-7.281 1.719,-7.688C2.238,-8.094 2.914,-8.297 3.75,-8.297C4.633,-8.297 5.406,-8.102 6.063,-7.719C6.195,-7.625 6.223,-7.52 6.141,-7.406L6.047,-7.234C5.973,-7.109 5.863,-7.082 5.719,-7.156C5.133,-7.5 4.492,-7.672 3.797,-7.672C3.172,-7.672 2.676,-7.535 2.313,-7.266C1.957,-6.992 1.781,-6.625 1.781,-6.156C1.781,-5.719 1.926,-5.383 2.219,-5.156C2.488,-4.945 3.039,-4.75 3.875,-4.563C4.895,-4.332 5.613,-4.047 6.031,-3.703C6.438,-3.359 6.641,-2.863 6.641,-2.219C6.641,-1.508 6.375,-0.945 5.844,-0.531C5.313,-0.094 4.602,0.125 3.719,0.125Z" style="fill:rgb(230,192,104);fill-rule:nonzero;"/>
                    </g>
                </g>
            </g>
            <g transform="matrix(1,0,0,1,9.65113,12.0379)">
                <g>
                    <g>
                        <path d="M1.891,0L1.531,0C1.363,0 1.281,-0.078 1.281,-0.234L1.281,-7.938C1.281,-8.102 1.363,-8.188 1.531,-8.188L1.891,-8.188C2.047,-8.188 2.125,-8.102 2.125,-7.938L2.125,-0.234C2.125,-0.078 2.047,0 1.891,0Z" style="fill:rgb(230,192,104);fill-rule:nonzero;"/>
                    </g>
                </g>
            </g>
            <g transform="matrix(1,0,0,1,14.2591,12.0379)">
                <g>
                    <g>
                        <path d="M1.75,0L1.531,0C1.363,0 1.281,-0.078 1.281,-0.234L1.281,-7.984C1.281,-8.148 1.363,-8.234 1.531,-8.234L1.703,-8.234C1.828,-8.234 1.922,-8.188 1.984,-8.094L7.594,-1.453L7.594,-7.938C7.594,-8.102 7.676,-8.188 7.844,-8.188L8.063,-8.188C8.219,-8.188 8.297,-8.102 8.297,-7.938L8.297,-0.188C8.297,-0.039 8.219,0.031 8.063,0.031L7.938,0.031C7.832,0.031 7.738,-0.004 7.656,-0.078L1.984,-6.813L1.984,-0.234C1.984,-0.078 1.906,0 1.75,0Z" style="fill:rgb(230,192,104);fill-rule:nonzero;"/>
                    </g>
                </g>
            </g>
            <g transform="matrix(1,0,0,1,25.0471,12.0379)">
                <g>
                    <g>
                        <path d="M5.047,0.125C3.797,0.125 2.773,-0.27 1.984,-1.063C1.203,-1.844 0.813,-2.852 0.813,-4.094C0.813,-5.332 1.203,-6.344 1.984,-7.125C2.773,-7.906 3.797,-8.297 5.047,-8.297C5.973,-8.297 6.785,-8.07 7.484,-7.625C7.629,-7.531 7.648,-7.422 7.547,-7.297L7.438,-7.141C7.352,-7.023 7.242,-7.008 7.109,-7.094C6.523,-7.477 5.859,-7.672 5.109,-7.672C4.086,-7.672 3.266,-7.344 2.641,-6.688C2.016,-6.031 1.703,-5.164 1.703,-4.094C1.703,-3.039 2.016,-2.18 2.641,-1.516C3.266,-0.848 4.082,-0.516 5.094,-0.516C5.906,-0.516 6.617,-0.734 7.234,-1.172C7.367,-1.266 7.477,-1.25 7.563,-1.125L7.672,-0.969C7.754,-0.844 7.738,-0.734 7.625,-0.641C6.875,-0.129 6.016,0.125 5.047,0.125Z" style="fill:rgb(230,192,104);fill-rule:nonzero;"/>
                    </g>
                </g>
            </g>
            <g transform="matrix(1,0,0,1,34.6111,12.0379)">
                <g>
                    <g>
                        <path d="M6.547,0L1.531,0C1.363,0 1.281,-0.078 1.281,-0.234L1.281,-7.938C1.281,-8.102 1.363,-8.188 1.531,-8.188L6.547,-8.188C6.703,-8.188 6.781,-8.102 6.781,-7.938L6.781,-7.781C6.781,-7.625 6.703,-7.547 6.547,-7.547L2.125,-7.547L2.125,-4.563L5.891,-4.563C6.047,-4.563 6.125,-4.484 6.125,-4.328L6.125,-4.156C6.125,-4.008 6.047,-3.938 5.891,-3.938L2.125,-3.938L2.125,-0.641L6.547,-0.641C6.703,-0.641 6.781,-0.555 6.781,-0.391L6.781,-0.234C6.781,-0.078 6.703,0 6.547,0Z" style="fill:rgb(230,192,104);fill-rule:nonzero;"/>
                    </g>
                </g>
            </g>
            <g transform="matrix(1,0,0,1,47.3672,12.0379)">
                <g>
                    <g>
                        <path d="M5.656,0L0.813,0C0.664,0 0.594,-0.078 0.594,-0.234L0.594,-0.297C0.594,-0.422 0.629,-0.52 0.703,-0.594L3.703,-3.563C4.148,-4 4.469,-4.391 4.656,-4.734C4.844,-5.078 4.938,-5.469 4.938,-5.906C4.938,-6.445 4.773,-6.879 4.453,-7.203C4.129,-7.523 3.707,-7.688 3.188,-7.688C2.488,-7.688 1.867,-7.426 1.328,-6.906C1.211,-6.789 1.102,-6.789 1,-6.906L0.906,-7.016C0.781,-7.117 0.773,-7.227 0.891,-7.344C1.523,-7.977 2.316,-8.297 3.266,-8.297C4.035,-8.297 4.645,-8.082 5.094,-7.656C5.551,-7.238 5.781,-6.672 5.781,-5.953C5.781,-5.43 5.672,-4.973 5.453,-4.578C5.223,-4.16 4.801,-3.66 4.188,-3.078L1.703,-0.703L5.656,-0.703C5.82,-0.703 5.906,-0.629 5.906,-0.484L5.906,-0.234C5.906,-0.078 5.82,0 5.656,0Z" style="fill:rgb(230,192,104);fill-rule:nonzero;"/>
                    </g>
                </g>
            </g>
            <g transform="matrix(1,0,0,1,55.1912,12.0379)">
                <g>
                    <g>
                        <path d="M5.875,-0.969C5.383,-0.238 4.676,0.125 3.75,0.125C2.813,0.125 2.098,-0.238 1.609,-0.969C1.109,-1.695 0.859,-2.738 0.859,-4.094C0.859,-5.445 1.109,-6.488 1.609,-7.219C2.109,-7.938 2.82,-8.297 3.75,-8.297C4.676,-8.297 5.383,-7.938 5.875,-7.219C6.375,-6.477 6.625,-5.438 6.625,-4.094C6.625,-2.75 6.375,-1.707 5.875,-0.969ZM1.734,-4.094C1.734,-1.688 2.406,-0.484 3.75,-0.484C5.094,-0.484 5.766,-1.688 5.766,-4.094C5.766,-6.488 5.094,-7.688 3.75,-7.688C2.406,-7.688 1.734,-6.488 1.734,-4.094Z" style="fill:rgb(230,192,104);fill-rule:nonzero;"/>
                    </g>
                </g>
            </g>
            <g transform="matrix(1,0,0,1,63.8792,12.0379)">
                <g>
                    <g>
                        <path d="M5.656,0L0.813,0C0.664,0 0.594,-0.078 0.594,-0.234L0.594,-0.297C0.594,-0.422 0.629,-0.52 0.703,-0.594L3.703,-3.563C4.148,-4 4.469,-4.391 4.656,-4.734C4.844,-5.078 4.938,-5.469 4.938,-5.906C4.938,-6.445 4.773,-6.879 4.453,-7.203C4.129,-7.523 3.707,-7.688 3.188,-7.688C2.488,-7.688 1.867,-7.426 1.328,-6.906C1.211,-6.789 1.102,-6.789 1,-6.906L0.906,-7.016C0.781,-7.117 0.773,-7.227 0.891,-7.344C1.523,-7.977 2.316,-8.297 3.266,-8.297C4.035,-8.297 4.645,-8.082 5.094,-7.656C5.551,-7.238 5.781,-6.672 5.781,-5.953C5.781,-5.43 5.672,-4.973 5.453,-4.578C5.223,-4.16 4.801,-3.66 4.188,-3.078L1.703,-0.703L5.656,-0.703C5.82,-0.703 5.906,-0.629 5.906,-0.484L5.906,-0.234C5.906,-0.078 5.82,0 5.656,0Z" style="fill:rgb(230,192,104);fill-rule:nonzero;"/>
                    </g>
                </g>
            </g>
            <g transform="matrix(1,0,0,1,71.6432,12.0379)">
                <g>
                    <g>
                        <path d="M3.266,0.125C2.367,0.125 1.578,-0.098 0.891,-0.547C0.766,-0.629 0.742,-0.742 0.828,-0.891L0.922,-1.031C1.016,-1.156 1.129,-1.172 1.266,-1.078C1.816,-0.68 2.473,-0.484 3.234,-0.484C4.629,-0.484 5.328,-1.129 5.328,-2.422C5.328,-3.055 5.156,-3.539 4.813,-3.875C4.477,-4.207 3.984,-4.375 3.328,-4.375C2.68,-4.375 2.148,-4.238 1.734,-3.969C1.629,-3.914 1.523,-3.895 1.422,-3.906L1.313,-3.906C1.176,-3.938 1.109,-4.02 1.109,-4.156L1.313,-7.953C1.32,-8.109 1.406,-8.188 1.563,-8.188L5.5,-8.188C5.656,-8.188 5.734,-8.102 5.734,-7.938L5.734,-7.719C5.734,-7.551 5.656,-7.469 5.5,-7.469L1.969,-7.469L1.813,-4.578C2.313,-4.848 2.883,-4.984 3.531,-4.984C4.363,-4.984 5.016,-4.758 5.484,-4.313C5.953,-3.875 6.188,-3.258 6.188,-2.469C6.188,-1.645 5.93,-1.004 5.422,-0.547C4.91,-0.098 4.191,0.125 3.266,0.125Z" style="fill:rgb(230,192,104);fill-rule:nonzero;"/>
                    </g>
                </g>
            </g>
        </g>
    </g>
    <g transform="matrix(0.561798,0,0,0.561798,0.19832,16.6398)">
        <g>
            <path d="M12.172,0L11.047,0C10.598,0 10.375,-0.238 10.375,-0.719L10.375,-22.641L2.297,-22.641C1.816,-22.641 1.578,-22.879 1.578,-23.359L1.578,-23.828C1.578,-24.305 1.816,-24.547 2.297,-24.547L20.922,-24.547C21.398,-24.547 21.641,-24.305 21.641,-23.828L21.641,-23.359C21.641,-22.879 21.398,-22.641 20.922,-22.641L12.859,-22.641L12.859,-0.719C12.859,-0.238 12.629,0 12.172,0Z" style="fill:rgb(230,192,104);fill-rule:nonzero;"/>
        </g>
    </g>
    <g transform="matrix(0.561798,0,0,0.561798,15.2658,16.6398)">
        <g>
            <path d="M15.078,-10.984L22.469,-0.859C22.633,-0.617 22.676,-0.414 22.594,-0.25C22.508,-0.082 22.32,0 22.031,0L20.563,0C20.176,0 19.883,-0.145 19.688,-0.438L12.063,-10.938L6.375,-10.938L6.375,-0.719C6.375,-0.238 6.133,0 5.656,0L4.578,0C4.098,0 3.859,-0.238 3.859,-0.719L3.859,-23.828C3.859,-24.305 4.098,-24.547 4.578,-24.547L14.109,-24.547C16.555,-24.547 18.445,-23.953 19.781,-22.766C21.113,-21.578 21.781,-19.906 21.781,-17.75C21.781,-15.727 21.203,-14.133 20.047,-12.969C18.898,-11.813 17.242,-11.148 15.078,-10.984ZM13.609,-22.641L6.375,-22.641L6.375,-12.813L13.609,-12.813C17.305,-12.813 19.156,-14.457 19.156,-17.75C19.156,-21.008 17.305,-22.641 13.609,-22.641Z" style="fill:rgb(230,192,104);fill-rule:nonzero;"/>
        </g>
    </g>
    <g transform="matrix(0.561798,0,0,0.561798,31.2636,16.6398)">
        <g>
            <path d="M3.234,0L2.484,0C2.223,0 2.039,-0.078 1.938,-0.234C1.844,-0.391 1.844,-0.586 1.938,-0.828L11.563,-24.297C11.75,-24.66 12.023,-24.844 12.391,-24.844L13,-24.844C13.406,-24.844 13.68,-24.66 13.828,-24.297L23.469,-0.828C23.563,-0.586 23.555,-0.391 23.453,-0.234C23.348,-0.078 23.16,0 22.891,0L21.672,0C21.305,0 21.031,-0.18 20.844,-0.547L18.5,-6.344L6.406,-6.344L4.063,-0.547C3.895,-0.18 3.617,0 3.234,0ZM12.453,-21.203L7.203,-8.281L17.719,-8.281L12.453,-21.203Z" style="fill:rgb(230,192,104);fill-rule:nonzero;"/>
        </g>
    </g>
    <g transform="matrix(0.561798,0,0,0.561798,47.5445,16.6398)">
        <g>
            <path d="M13.172,0L4.578,0C4.098,0 3.859,-0.238 3.859,-0.719L3.859,-23.828C3.859,-24.305 4.098,-24.547 4.578,-24.547L13.172,-24.547C17.109,-24.547 20.18,-23.457 22.391,-21.281C24.617,-19.094 25.734,-16.094 25.734,-12.281C25.734,-8.508 24.617,-5.52 22.391,-3.313C20.141,-1.102 17.066,0 13.172,0ZM6.375,-22.641L6.375,-1.906L12.859,-1.906C16.117,-1.906 18.633,-2.805 20.406,-4.609C22.188,-6.41 23.078,-8.969 23.078,-12.281C23.078,-15.594 22.188,-18.145 20.406,-19.938C18.633,-21.738 16.117,-22.641 12.859,-22.641L6.375,-22.641Z" style="fill:rgb(230,192,104);fill-rule:nonzero;"/>
        </g>
    </g>
    <g transform="matrix(0.561798,0,0,0.561798,65.4232,16.6398)">
        <g>
            <path d="M5.656,0L4.578,0C4.098,0 3.859,-0.238 3.859,-0.719L3.859,-23.828C3.859,-24.305 4.098,-24.547 4.578,-24.547L5.656,-24.547C6.133,-24.547 6.375,-24.305 6.375,-23.828L6.375,-0.719C6.375,-0.238 6.133,0 5.656,0Z" style="fill:rgb(230,192,104);fill-rule:nonzero;"/>
        </g>
    </g>
    <g transform="matrix(0.561798,0,0,0.561798,73.1895,16.6398)">
        <g>
            <path d="M15.156,0.359C11.383,0.359 8.32,-0.816 5.969,-3.172C3.625,-5.523 2.453,-8.563 2.453,-12.281C2.453,-16 3.625,-19.035 5.969,-21.391C8.32,-23.734 11.383,-24.906 15.156,-24.906C17.914,-24.906 20.352,-24.223 22.469,-22.859C22.895,-22.598 22.953,-22.273 22.641,-21.891L22.313,-21.422C22.051,-21.086 21.727,-21.039 21.344,-21.281C19.594,-22.426 17.594,-23 15.344,-23C12.27,-23 9.797,-22.016 7.922,-20.047C6.047,-18.078 5.109,-15.488 5.109,-12.281C5.109,-9.113 6.047,-6.531 7.922,-4.531C9.797,-2.539 12.254,-1.547 15.297,-1.547C17.723,-1.547 19.859,-2.207 21.703,-3.531C22.109,-3.789 22.438,-3.742 22.688,-3.391L23,-2.922C23.27,-2.535 23.234,-2.207 22.891,-1.938C20.641,-0.406 18.063,0.359 15.156,0.359Z" style="fill:rgb(230,192,104);fill-rule:nonzero;"/>
        </g>
    </g>
    <g transform="matrix(0.561798,0,0,0.561798,89.3087,16.6398)">
        <g>
            <path d="M5.656,0L4.578,0C4.098,0 3.859,-0.238 3.859,-0.719L3.859,-23.828C3.859,-24.305 4.098,-24.547 4.578,-24.547L5.656,-24.547C6.133,-24.547 6.375,-24.305 6.375,-23.828L6.375,-0.719C6.375,-0.238 6.133,0 5.656,0Z" style="fill:rgb(230,192,104);fill-rule:nonzero;"/>
        </g>
    </g>
    <g transform="matrix(0.561798,0,0,0.561798,97.075,16.6398)">
        <g>
            <path d="M2.016,3.703C1.555,3.773 1.289,3.598 1.219,3.172L1.109,2.625C1.047,2.164 1.238,1.906 1.688,1.844C2.75,1.594 3.516,1.066 3.984,0.266C4.453,-0.535 4.688,-1.703 4.688,-3.234L4.688,-23.828C4.688,-24.305 4.926,-24.547 5.406,-24.547L6.484,-24.547C6.961,-24.547 7.203,-24.305 7.203,-23.828L7.203,-3.422C7.203,-1.398 6.754,0.211 5.859,1.422C4.973,2.629 3.691,3.391 2.016,3.703Z" style="fill:rgb(230,192,104);fill-rule:nonzero;"/>
        </g>
    </g>
    <g transform="matrix(0.561798,0,0,0.561798,105.205,16.6398)">
        <g>
            <path d="M3.234,0L2.484,0C2.223,0 2.039,-0.078 1.938,-0.234C1.844,-0.391 1.844,-0.586 1.938,-0.828L11.563,-24.297C11.75,-24.66 12.023,-24.844 12.391,-24.844L13,-24.844C13.406,-24.844 13.68,-24.66 13.828,-24.297L23.469,-0.828C23.563,-0.586 23.555,-0.391 23.453,-0.234C23.348,-0.078 23.16,0 22.891,0L21.672,0C21.305,0 21.031,-0.18 20.844,-0.547L18.5,-6.344L6.406,-6.344L4.063,-0.547C3.895,-0.18 3.617,0 3.234,0ZM12.453,-21.203L7.203,-8.281L17.719,-8.281L12.453,-21.203Z" style="fill:rgb(230,192,104);fill-rule:nonzero;"/>
        </g>
    </g>
</svg>
