<svg clip-rule="evenodd" fill-rule="evenodd" stroke-linejoin="round" stroke-miterlimit="2" viewBox="0 0 120 30" xmlns="http://www.w3.org/2000/svg"><g fill="#fff" fill-rule="nonzero"><path d="m3.719.125c-1.086 0-2.028-.297-2.828-.891-.125-.082-.141-.191-.047-.328l.109-.14c.07-.125.176-.141.313-.047.707.511 1.5.765 2.375.765.656 0 1.179-.144 1.578-.437.394-.289.594-.68.594-1.172 0-.426-.141-.758-.422-1-.305-.219-.868-.414-1.688-.594-1.043-.226-1.758-.515-2.14-.859-.407-.352-.61-.848-.61-1.485 0-.675.254-1.218.766-1.625.519-.406 1.195-.609 2.031-.609.883 0 1.656.195 2.313.578.132.094.16.199.078.313l-.094.172c-.074.125-.184.152-.328.078-.586-.344-1.227-.516-1.922-.516-.625 0-1.121.137-1.484.406-.356.274-.532.641-.532 1.11 0 .437.145.773.438 1 .269.211.82.406 1.656.593 1.02.231 1.738.516 2.156.86.407.344.61.84.61 1.484 0 .711-.266 1.274-.797 1.688-.531.437-1.242.656-2.125.656z" transform="matrix(.561798 0 0 .561798 40.26781149776 27.7128681442)"/><path d="m1.891 0h-.36c-.168 0-.25-.078-.25-.234v-7.704c0-.164.082-.25.25-.25h.36c.156 0 .234.086.234.25v7.704c0 .156-.078.234-.234.234z" transform="matrix(.561798 0 0 .561798 45.09478553174 27.7128681442)"/><path d="m1.75 0h-.219c-.168 0-.25-.078-.25-.234v-7.75c0-.164.082-.25.25-.25h.172c.125 0 .219.046.281.14l5.61 6.641v-6.485c0-.164.082-.25.25-.25h.219c.156 0 .234.086.234.25v7.75c0 .149-.078.219-.234.219h-.125c-.106 0-.2-.035-.282-.109l-5.672-6.735v6.579c0 .156-.078.234-.234.234z" transform="matrix(.561798 0 0 .561798 47.6835338618 27.7128681442)"/><path d="m5.047.125c-1.25 0-2.274-.395-3.063-1.188-.781-.781-1.171-1.789-1.171-3.031 0-1.238.39-2.25 1.171-3.031.789-.781 1.813-1.172 3.063-1.172.926 0 1.738.227 2.437.672.145.094.164.203.063.328l-.109.156c-.086.118-.196.133-.329.047-.586-.383-1.25-.578-2-.578-1.023 0-1.843.328-2.468.984-.625.657-.938 1.524-.938 2.594 0 1.055.313 1.914.938 2.578.625.668 1.441 1 2.453 1 .812 0 1.523-.218 2.14-.656.133-.094.243-.078.329.047l.109.156c.082.125.066.235-.047.328-.75.512-1.609.766-2.578.766z" transform="matrix(.561798 0 0 .561798 53.7442106858 27.7128681442)"/><path d="m6.547 0h-5.016c-.168 0-.25-.078-.25-.234v-7.704c0-.164.082-.25.25-.25h5.016c.156 0 .234.086.234.25v.157c0 .156-.078.234-.234.234h-4.422v2.984h3.766c.156 0 .234.079.234.235v.172c0 .148-.078.218-.234.218h-3.766v3.297h4.422c.156 0 .234.086.234.25v.157c0 .156-.078.234-.234.234z" transform="matrix(.561798 0 0 .561798 59.1172467578 27.7128681442)"/><path d="m5.656 0h-4.843c-.149 0-.219-.078-.219-.234v-.063c0-.125.035-.223.109-.297l3-2.969c.445-.437.766-.828.953-1.171.188-.344.282-.735.282-1.172 0-.539-.165-.973-.485-1.297-.324-.32-.746-.485-1.265-.485-.7 0-1.321.262-1.86.782-.117.117-.226.117-.328 0l-.094-.11c-.125-.101-.133-.211-.015-.328.632-.633 1.425-.953 2.375-.953.769 0 1.379.215 1.828.641.457.418.687.984.687 1.703 0 .523-.109.98-.328 1.375-.23.418-.652.918-1.265 1.5l-2.485 2.375h3.953c.164 0 .25.074.25.219v.25c0 .156-.086.234-.25.234z" transform="matrix(.561798 0 0 .561798 66.2835982256 27.7128681442)"/><path d="m5.875-.969c-.492.731-1.199 1.094-2.125 1.094-.937 0-1.652-.363-2.141-1.094-.5-.726-.75-1.769-.75-3.125 0-1.351.25-2.394.75-3.125.5-.719 1.211-1.078 2.141-1.078.926 0 1.633.359 2.125 1.078.5.742.75 1.781.75 3.125s-.25 2.387-.75 3.125zm-4.141-3.125c0 2.406.672 3.61 2.016 3.61s2.016-1.204 2.016-3.61c0-2.394-.672-3.594-2.016-3.594s-2.016 1.2-2.016 3.594z" transform="matrix(.561798 0 0 .561798 70.6791057776 27.7128681442)"/><path d="m5.656 0h-4.843c-.149 0-.219-.078-.219-.234v-.063c0-.125.035-.223.109-.297l3-2.969c.445-.437.766-.828.953-1.171.188-.344.282-.735.282-1.172 0-.539-.165-.973-.485-1.297-.324-.32-.746-.485-1.265-.485-.7 0-1.321.262-1.86.782-.117.117-.226.117-.328 0l-.094-.11c-.125-.101-.133-.211-.015-.328.632-.633 1.425-.953 2.375-.953.769 0 1.379.215 1.828.641.457.418.687.984.687 1.703 0 .523-.109.98-.328 1.375-.23.418-.652.918-1.265 1.5l-2.485 2.375h3.953c.164 0 .25.074.25.219v.25c0 .156-.086.234-.25.234z" transform="matrix(.561798 0 0 .561798 75.5600068016 27.7128681442)"/><path d="m3.266.125c-.899 0-1.688-.223-2.375-.672-.125-.082-.149-.195-.063-.344l.094-.14c.094-.125.207-.141.344-.047.55.398 1.207.594 1.968.594 1.395 0 2.094-.645 2.094-1.938 0-.633-.172-1.117-.515-1.453-.336-.332-.829-.5-1.485-.5-.648 0-1.18.137-1.594.406-.105.055-.211.074-.312.063h-.109c-.137-.032-.204-.114-.204-.25l.204-3.797c.007-.156.093-.235.25-.235h3.937c.156 0 .234.086.234.25v.219c0 .168-.078.25-.234.25h-3.531l-.156 2.891c.5-.27 1.07-.406 1.718-.406.832 0 1.485.226 1.953.671.469.438.704 1.055.704 1.844 0 .824-.258 1.465-.766 1.922-.512.449-1.231.672-2.156.672z" transform="matrix(.561798 0 0 .561798 79.9218064736 27.7128681442)"/><path d="m12.172 0h-1.125c-.449 0-.672-.238-.672-.719v-21.922h-8.078c-.481 0-.719-.238-.719-.718v-.469c0-.477.238-.719.719-.719h18.625c.476 0 .719.242.719.719v.469c0 .48-.243.718-.719.718h-8.063v21.922c0 .481-.23.719-.687.719z" transform="matrix(.561798 0 0 .561798 .19832 16.6398)"/><path d="m15.078-10.984 7.391 10.125c.164.242.207.445.125.609-.086.168-.274.25-.563.25h-1.468c-.387 0-.68-.145-.875-.438l-7.625-10.5h-5.688v10.219c0 .481-.242.719-.719.719h-1.078c-.48 0-.719-.238-.719-.719v-23.109c0-.477.239-.719.719-.719h9.531c2.446 0 4.336.594 5.672 1.781 1.332 1.188 2 2.86 2 5.016 0 2.023-.578 3.617-1.734 4.781-1.149 1.156-2.805 1.821-4.969 1.985zm-1.469-11.657h-7.234v9.828h7.234c3.696 0 5.547-1.644 5.547-4.937 0-3.258-1.851-4.891-5.547-4.891z" transform="matrix(.561798 0 0 .561798 15.2658 16.6398)"/><path d="m3.234 0h-.75c-.261 0-.445-.078-.546-.234-.094-.157-.094-.352 0-.594l9.625-23.469c.187-.363.46-.547.828-.547h.609c.406 0 .68.184.828.547l9.641 23.469c.094.242.086.437-.016.594-.105.156-.293.234-.562.234h-1.219c-.367 0-.641-.18-.828-.547l-2.344-5.797h-12.094l-2.343 5.797c-.168.367-.446.547-.829.547zm9.219-21.203-5.25 12.922h10.516z" transform="matrix(.561798 0 0 .561798 31.2636 16.6398)"/><path d="m13.172 0h-8.594c-.48 0-.719-.238-.719-.719v-23.109c0-.477.239-.719.719-.719h8.594c3.937 0 7.008 1.09 9.219 3.266 2.226 2.187 3.343 5.187 3.343 9 0 3.773-1.117 6.761-3.343 8.968-2.25 2.211-5.325 3.313-9.219 3.313zm-6.797-22.641v20.735h6.484c3.258 0 5.774-.899 7.547-2.703 1.782-1.801 2.672-4.36 2.672-7.672 0-3.313-.89-5.864-2.672-7.657-1.773-1.8-4.289-2.703-7.547-2.703z" transform="matrix(.561798 0 0 .561798 47.5445 16.6398)"/><path d="m5.656 0h-1.078c-.48 0-.719-.238-.719-.719v-23.109c0-.477.239-.719.719-.719h1.078c.477 0 .719.242.719.719v23.109c0 .481-.242.719-.719.719z" transform="matrix(.561798 0 0 .561798 65.4232 16.6398)"/><path d="m15.156.359c-3.773 0-6.836-1.175-9.187-3.531-2.344-2.351-3.516-5.391-3.516-9.109 0-3.719 1.172-6.754 3.516-9.11 2.351-2.343 5.414-3.515 9.187-3.515 2.758 0 5.196.683 7.313 2.047.426.261.484.586.172.968l-.328.469c-.262.336-.586.383-.969.141-1.75-1.145-3.75-1.719-6-1.719-3.074 0-5.547.984-7.422 2.953s-2.813 4.559-2.813 7.766c0 3.168.938 5.75 2.813 7.75 1.875 1.992 4.332 2.984 7.375 2.984 2.426 0 4.562-.66 6.406-1.984.406-.258.735-.211.985.14l.312.469c.27.387.234.715-.109.984-2.25 1.532-4.828 2.297-7.735 2.297z" transform="matrix(.561798 0 0 .561798 73.1895 16.6398)"/><path d="m5.656 0h-1.078c-.48 0-.719-.238-.719-.719v-23.109c0-.477.239-.719.719-.719h1.078c.477 0 .719.242.719.719v23.109c0 .481-.242.719-.719.719z" transform="matrix(.561798 0 0 .561798 89.3087 16.6398)"/><path d="m2.016 3.703c-.461.07-.727-.105-.797-.531l-.11-.547c-.062-.461.129-.719.579-.781 1.062-.25 1.828-.778 2.296-1.578.469-.801.704-1.969.704-3.5v-20.594c0-.477.238-.719.718-.719h1.078c.477 0 .719.242.719.719v20.406c0 2.024-.449 3.633-1.344 4.844-.886 1.207-2.168 1.969-3.843 2.281z" transform="matrix(.561798 0 0 .561798 97.075 16.6398)"/><path d="m3.234 0h-.75c-.261 0-.445-.078-.546-.234-.094-.157-.094-.352 0-.594l9.625-23.469c.187-.363.46-.547.828-.547h.609c.406 0 .68.184.828.547l9.641 23.469c.094.242.086.437-.016.594-.105.156-.293.234-.562.234h-1.219c-.367 0-.641-.18-.828-.547l-2.344-5.797h-12.094l-2.343 5.797c-.168.367-.446.547-.829.547zm9.219-21.203-5.25 12.922h10.516z" transform="matrix(.561798 0 0 .561798 105.205 16.6398)"/></g></svg>