<?xml version="1.0" encoding="UTF-8" standalone="no"?>
<!DOCTYPE svg PUBLIC "-//W3C//DTD SVG 1.1//EN" "http://www.w3.org/Graphics/SVG/1.1/DTD/svg11.dtd">
<svg width="100%" height="100%" viewBox="0 0 512 512" version="1.1" xmlns="http://www.w3.org/2000/svg" xmlns:xlink="http://www.w3.org/1999/xlink" xml:space="preserve" xmlns:serif="http://www.serif.com/" style="fill-rule:evenodd;clip-rule:evenodd;stroke-linejoin:round;stroke-miterlimit:2;">
    <g transform="matrix(1.11062,0,0,1.10702,-44.6347,-59.1396)">
        <circle cx="270.965" cy="284.749" r="229.283" style="fill:rgb(153,166,171);"/>
    </g>
    <g transform="matrix(5.50346,0,0,5.36206,-778.63,-459.056)">
        <path d="M163.941,110.352L164.207,127.879C164.684,126.602 165.316,111.895 178.684,110.352L163.941,110.352ZM211.98,110.352L197.238,110.352C210.605,111.895 211.234,126.605 211.715,127.879L211.98,110.352ZM198.391,166.203L177.195,166.203C178.469,166.203 179.426,165.898 180.063,165.289C180.699,164.68 181.164,163.906 181.457,162.977C181.75,162.047 181.91,161.051 181.934,159.988C181.961,158.926 181.977,157.945 181.977,157.039L181.977,110.43L193.609,110.43L193.609,158C193.609,158.902 193.633,159.832 193.688,160.785C193.738,161.742 193.926,162.621 194.246,163.418C194.563,164.211 195.043,164.879 195.68,165.41C196.316,165.938 197.223,166.203 198.391,166.203ZM190.145,162.484C190.059,162 190.004,161.496 189.977,160.988C189.918,159.98 189.891,158.973 189.891,157.996L189.891,114.148L185.691,114.148L185.691,157.043C185.691,157.957 185.68,158.98 185.652,160.082C185.629,160.902 185.547,161.711 185.402,162.484L190.145,162.484Z" style="fill:white;fill-rule:nonzero;"/>
    </g>
</svg>
