<svg xmlns="http://www.w3.org/2000/svg" version="1.1" xmlns:xlink="http://www.w3.org/1999/xlink" xmlns:svgjs="http://svgjs.com/svgjs" width="512" height="512" x="0" y="0" viewBox="0 0 512 512" style="enable-background:new 0 0 512 512" xml:space="preserve" class=""><g><path d="M78.91 283.67V65.2c0-15.21 12.37-27.59 27.58-27.59h110.17c10.69 0 20.51 6.27 25.02 15.97l26.82 57.76" style="stroke-width:15;stroke-linecap:round;stroke-linejoin:round;stroke-miterlimit:10;" fill="none" stroke="#B05F34" stroke-width="15" stroke-linecap="round" stroke-linejoin="round" stroke-miterlimit="10" data-original="#000000" class=""></path><path d="M48.79 248.132V65.2c0-31.82 25.89-57.7 57.7-57.7h110.17c22.37 0 42.91 13.11 52.33 33.4l26.68 57.45M78.91 351.3v153.2H48.79V350.81" style="stroke-width:15;stroke-linecap:round;stroke-linejoin:round;stroke-miterlimit:10;" fill="none" stroke="#B05F34" stroke-width="15" stroke-linecap="round" stroke-linejoin="round" stroke-miterlimit="10" data-original="#000000" class=""></path><circle cx="64.391" cy="317.485" r="36.796" style="stroke-width:15;stroke-linecap:round;stroke-linejoin:round;stroke-miterlimit:10;" fill="none" stroke="#B05F34" stroke-width="15" stroke-linecap="round" stroke-linejoin="round" stroke-miterlimit="10" data-original="#000000" class=""></circle><path d="M78.905 406.337h53.219c10.077 0 18.246 8.169 18.246 18.246V504.5H78.905v-98.163zM176.976 504.5H19.05M324.022 192.589l-86.125 41.18c-7.787 3.723-17.117.429-20.84-7.358h0c-3.723-7.787-.429-17.117 7.358-20.84l171.222-81.868c7.787-3.723 17.117-.429 20.84 7.358v0c3.723 7.787.429 17.117-7.358 20.84l-53.478 25.57M300.971 95.819l-38.824 18.564c-32.881 15.722-46.791 55.122-31.069 88.002h0l157.896-75.497h0c-15.723-32.88-55.122-46.79-88.003-31.069zM255.053 260.12h0M270.241 291.884h0M285.609 324.024h0M300.796 355.788h0M316.164 387.928h0M331.351 419.692h0M346.719 451.832h0M361.907 483.596h0M295.828 261.215h0M311.015 292.979h0M356.938 389.023h0M372.126 420.787h0M387.493 452.927h0M402.681 484.691h0M320.575 228.792h0M335.763 260.556h0M351.13 292.696h0M366.318 324.46h0M381.685 356.6h0M396.873 388.364h0M412.241 420.503h0M427.428 452.268h0M442.796 484.407h0M361.349 229.887h0M376.537 261.651h0M391.905 293.791h0M407.092 325.555h0M422.46 357.694h0M437.647 389.459h0M468.203 453.362h0M483.57 485.502h0M386.097 197.463h0M401.285 229.227h0M416.652 261.367h0M431.84 293.131h0M447.207 325.271h0M462.395 357.035h0M477.762 389.175h0M492.95 420.939h0M426.871 198.558h0M442.059 230.322h0M457.426 262.462h0M472.614 294.226h0M487.981 326.366h0" style="stroke-width:15;stroke-linecap:round;stroke-linejoin:round;stroke-miterlimit:10;" fill="none" stroke="#B05F34" stroke-width="15" stroke-linecap="round" stroke-linejoin="round" stroke-miterlimit="10" data-original="#000000" class=""></path></g></svg>
