<svg xmlns="http://www.w3.org/2000/svg" version="1.1" xmlns:xlink="http://www.w3.org/1999/xlink" width="512" height="512" x="0" y="0" viewBox="0 0 64 64" style="enable-background:new 0 0 512 512" xml:space="preserve" class=""><g transform="matrix(0.9599999999999992,0,0,0.9599999999999992,1.280000000000026,6.279999985694978)"><g data-name="Layer 48"><path fill="#ffb8a5" d="M37 40v-8H27v8l5 5z" opacity="1" data-original="#ffb8a5"></path><path fill="#58595b" d="M18 20.77V11a8 8 0 0 1 8-8h8a4 4 0 0 1 4 4 2 2 0 0 1 2-2h1a5 5 0 0 1 5 5v10.77z" opacity="1" data-original="#58595b" class=""></path><path fill="#d80027" d="m32 45-2.155 1.437-.271 2.754 1.161.387a4 4 0 0 0 2.53 0l1.161-.387-.271-2.754z" opacity="1" data-original="#d80027"></path><path fill="#0ea5e9" d="m24 41-7.072 1.861A16 16 0 0 0 5 58.334V61h23l1.574-11.809.271-2.754L26 49zM47.072 42.861 40 41l-2 8-3.845-2.563.271 2.754L36 61h23v-2.666a16 16 0 0 0-11.928-15.473z" opacity="1" data-original="#bddbff" class=""></path><path fill="#0ea5e9" d="M16.928 45.861 25 44l2 7 2.574-1.809.271-2.754L26 49l-2-8-7.072 1.861A16 16 0 0 0 5 58.334V61h.014a15.994 15.994 0 0 1 11.914-15.139zM47.072 42.861 40 41l-2 8-3.845-2.563.271 2.754L37 51l2-7 8.072 1.861A15.994 15.994 0 0 1 58.986 61H59v-2.666a16 16 0 0 0-11.928-15.473z" opacity="1" data-original="#9bc9ff" class=""></path><path fill="#ed1c24" d="M33.265 49.578a4 4 0 0 1-2.53 0l-1.161-.387L28 61h8l-1.574-11.809z" opacity="1" data-original="#ed1c24" class=""></path><path fill="#ffbcab" d="M40 15H24a2 2 0 0 0-2 2v10a10 10 0 0 0 20 0V17a2 2 0 0 0-2-2z" opacity="1" data-original="#ffbcab" class=""></path><path fill="#ffb8a5" d="M44 26a3 3 0 0 0 0-6h-2v6zM20 26h2v-6h-2a3 3 0 0 0 0 6z" opacity="1" data-original="#ffb8a5"></path><path fill="#57a4ff" d="m40 41-3-1-5 5 6 4zM32 45l-5-5-3 1 2 8z" opacity="1" data-original="#57a4ff"></path><g fill="#231f20"><path d="m47.33 41.89-7.05-1.85-2.28-.76v-3.07A11 11 0 0 0 43 27h1a3.981 3.981 0 0 0 3-6.62V10a6 6 0 0 0-6-6h-1a2.994 2.994 0 0 0-1.67.51A4.989 4.989 0 0 0 34 2h-8a9.014 9.014 0 0 0-9 9v9.38A3.981 3.981 0 0 0 20 27h1a11 11 0 0 0 5 9.21v3.07l-2.28.76-7.05 1.85A17.021 17.021 0 0 0 4 58.33V61a1 1 0 0 0 1 1h54a1 1 0 0 0 1-1v-2.67a17.021 17.021 0 0 0-12.67-16.44zm-8.52-.23-1.44 5.72-3.8-2.54 3.7-3.7zM32 43.59l-4-4v-2.35a10.906 10.906 0 0 0 8 0v2.35zm1.33 4.91-.38.13a3.083 3.083 0 0 1-1.9 0l-.38-.13.21-1.55L32 46.2l1.12.75zM46 23a2.006 2.006 0 0 1-2 2h-1v-4h1a2.006 2.006 0 0 1 2 2zm-25 2h-1a2 2 0 0 1 0-4h1zm0-8v2h-1a4.091 4.091 0 0 0-1 .14V11a7.008 7.008 0 0 1 7-7h8a3.009 3.009 0 0 1 3 3 1 1 0 0 0 2 0 1 1 0 0 1 1-1h1a4 4 0 0 1 4 4v9.14a4.091 4.091 0 0 0-1-.14h-1v-2a3.009 3.009 0 0 0-3-3H24a3.009 3.009 0 0 0-3 3zm2 10V17a1 1 0 0 1 1-1h16a1 1 0 0 1 1 1v10a9 9 0 0 1-18 0zm3.73 14.14 3.7 3.7-3.8 2.54-1.44-5.72zM27.12 60H19v-5a1 1 0 0 0-2 0v5H6v-1.67a15.01 15.01 0 0 1 11.18-14.5l6.1-1.61 1.75 7.02a.987.987 0 0 0 .61.69.922.922 0 0 0 .36.07.991.991 0 0 0 .55-.17l2.12-1.41zm2.02 0 1.27-9.48.01.01a5.118 5.118 0 0 0 3.16 0l.01-.01L34.86 60zM58 60H47v-5a1 1 0 0 0-2 0v5h-8.12l-1.55-11.58 2.12 1.41A.991.991 0 0 0 38 50a.922.922 0 0 0 .36-.07.987.987 0 0 0 .61-.69l1.75-7.02 6.1 1.61A15.01 15.01 0 0 1 58 58.33z" fill="#231f20" opacity="1" data-original="#231f20" class=""></path><path d="M36 24a1 1 0 0 0 1-1v-1a1 1 0 0 0-2 0v1a1 1 0 0 0 1 1zM36.2 31.1a1 1 0 0 0-1.2-1.6 5.027 5.027 0 0 1-6 0 1 1 0 0 0-1.2 1.6 7.036 7.036 0 0 0 8.4 0zM29 23v-1a1 1 0 0 0-2 0v1a1 1 0 0 0 2 0z" fill="#231f20" opacity="1" data-original="#231f20" class=""></path></g></g></g></svg>
